<?xml version="1.0" encoding="UTF-8" standalone="yes"?>
<svg xmlns="http://www.w3.org/2000/svg" xmlns:xlink="http://www.w3.org/1999/xlink" width="44.681pt" height="4.795pt" version="1.1" viewBox="-22.787 765.158 44.681 4.795">
  <!--
	Exported with Concepts: Smarter Sketching
	Version: 2463 on iOS 17.1
	https://concepts.app/
	-->
  <title>0A1A025D-9134-4C11-842D-4FEEA5DE3199</title>
  <desc>Drawing exported from Concepts: Smarter Sketching</desc>
  <defs></defs>
  <rect x="-22.787" y="765.158" width="44.681" height="4.795" stroke="none" fill="white"></rect>
  <g id="Pen" opacity="1.000">
    <path id="STROKE_bc4388ae-e672-44ef-ad9c-2ecdd12bacf6" opacity="1.000" fill="none" stroke="#171612" stroke-width="2.919" stroke-opacity="1.000" stroke-linecap="round" stroke-linejoin="round" d="M -20.439 767.555 L -19.434 767.555 L -19.143 767.555 L -18.843 767.555 L -18.491 767.555 L -18.105 767.555 L -17.683 767.555 L -17.225 767.555 L -16.691 767.555 L -16.196 767.555 L -15.689 767.555 L -15.158 767.555 L -14.614 767.555 L -14.044 767.555 L -13.417 767.555 L -12.883 767.555 L -12.366 767.555 L -11.808 767.555 L -11.278 767.555 L -10.734 767.555 L -10.127 767.555 L -9.620 767.555 L -9.112 767.555 L -8.594 767.555 L -8.037 767.555 L -7.480 767.555 L -6.854 767.555 L -6.346 767.555 L -5.812 767.555 L -5.294 767.555 L -4.774 767.555 L -4.253 767.555 L -3.663 767.555 L -3.214 767.555 L -2.766 767.555 L -2.321 767.555 L -1.873 767.555 L -1.451 767.555 L -0.979 767.555 L -0.603 767.555 L -0.254 767.555 L 0.122 767.555 L 0.485 767.555 L 0.824 767.555 L 1.187 767.555 L 1.464 767.555 L 1.731 767.555 L 1.994 767.555 L 2.275 767.555 L 2.538 767.555 L 2.842 767.555 L 3.082 767.555 L 3.336 767.555 L 3.590 767.555 L 3.857 767.555 L 4.134 767.555 L 4.450 767.555 L 4.704 767.555 L 4.958 767.555 L 5.212 767.555 L 5.466 767.555 L 5.719 767.555 L 6.010 767.555 L 6.250 767.555 L 6.481 767.555 L 6.708 767.555 L 6.926 767.555 L 7.144 767.555 L 7.397 767.555 L 7.592 767.555 L 7.786 767.555 L 8.004 767.555 L 8.208 767.555 L 8.426 767.555 L 8.667 767.555 L 8.861 767.555 L 9.056 767.555 L 9.260 767.555 L 9.464 767.555 L 9.672 767.555 L 9.926 767.555 L 10.117 767.555 L 10.325 767.555 L 10.516 767.555 L 10.711 767.555 L 10.905 767.555 L 11.123 767.555 L 11.291 767.555 L 11.459 767.555 L 11.630 767.555 L 11.785 767.555 L 11.967 767.555 L 12.174 767.555 L 12.342 767.555 L 12.524 767.555 L 12.692 767.555 L 12.886 767.555 L 13.068 767.555 L 13.298 767.555 L 13.480 767.555 L 13.671 767.555 L 13.879 767.555 L 14.096 767.555 L 14.314 767.555 L 14.554 767.555 L 14.759 767.555 L 14.976 767.555 L 15.184 767.555 L 15.375 767.555 L 15.570 767.555 L 15.800 767.555 L 15.969 767.555 L 16.137 767.555 L 16.308 767.555 L 16.463 767.555 L 16.608 767.555 L 16.789 767.555 L 16.911 767.555 L 17.033 767.555 L 17.142 767.555 L 17.238 767.555 L 17.442 767.555 L 17.574 767.555 L 17.683 767.555 L 17.805 767.555 L 17.900 767.555 L 17.999 767.555 L 18.118 767.555 L 18.217 767.555 L 18.326 767.555 L 18.421 767.555 L 18.530 767.555 L 18.639 767.555 L 18.761 767.555 L 18.879 767.555 L 19.001 767.555 L 19.110 767.555 L 19.219 767.555 L 19.328 767.555 L 19.437 767.555 L 19.545 767.555 "></path>
  </g>
</svg>