<?xml version="1.0" encoding="UTF-8" standalone="yes"?>
<svg xmlns="http://www.w3.org/2000/svg" xmlns:xlink="http://www.w3.org/1999/xlink" width="40.191pt" height="40.641pt" version="1.1" viewBox="-18.519 749.895 40.191 40.641">
  <!--
	Exported with Concepts: Smarter Sketching
	Version: 2463 on iOS 17.1
	https://concepts.app/
	-->
  <title>0A1A025D-9134-4C11-842D-4FEEA5DE3199</title>
  <desc>Drawing exported from Concepts: Smarter Sketching</desc>
  <defs></defs>
  <rect x="-18.519" y="749.895" width="40.191" height="40.641" stroke="none" fill="white"></rect>
  <g id="Pen" opacity="1.000">
    <path id="STROKE_2644750e-39e4-4b7e-9bd3-e87d13f2cf06" opacity="1.000" fill="none" stroke="#171612" stroke-width="2.919" stroke-opacity="1.000" stroke-linecap="round" stroke-linejoin="round" d="M -16.147 752.204 L -16.147 752.314 L -16.147 752.518 L -16.147 752.676 L -16.147 752.868 L -16.147 753.097 L -16.147 753.388 L -16.147 753.702 L -16.147 754.064 L -16.147 754.474 L -16.147 754.859 L -16.147 755.269 L -16.147 755.693 L -16.147 756.126 L -16.147 756.561 L -16.147 757.045 L -16.147 757.443 L -16.147 757.853 L -16.147 758.252 L -16.147 758.673 L -16.147 759.083 L -16.147 759.555 L -16.147 759.952 L -16.147 760.350 L -16.147 760.749 L -16.147 761.159 L -16.147 761.569 L -16.147 762.027 L -16.147 762.403 L -16.147 762.751 L -16.147 763.102 L -16.147 763.452 L -16.147 763.791 L -16.147 764.187 L -16.147 764.490 L -16.147 764.804 L -16.147 765.106 L -16.147 765.431 L -16.147 765.757 L -16.147 766.144 L -16.147 766.481 L -16.147 766.831 L -16.147 767.218 L -16.147 767.615 L -16.147 768.025 L -16.147 768.497 L -16.147 768.884 L -16.147 769.269 L -16.147 769.642 L -16.147 769.992 L -16.147 770.332 L -16.147 770.693 L -16.147 770.959 L -16.147 771.223 L -16.147 771.477 L -16.147 771.743 L -16.147 772.020 L -16.147 772.359 L -16.147 772.648 L -16.147 772.973 L -16.147 773.323 L -16.147 773.685 L -16.147 774.059 L -16.147 774.494 L -16.147 774.844 L -16.147 775.206 L -16.147 775.568 L -16.147 775.919 L -16.147 776.267 L -16.147 776.654 L -16.147 776.943 L -16.147 777.234 L -16.147 777.511 L -16.147 777.800 L -16.147 778.065 L -16.147 778.379 L -16.147 778.608 L -16.147 778.826 L -16.147 779.055 L -16.147 779.273 L -16.147 779.479 L -16.147 779.731 L -16.147 779.926 L -16.147 780.130 L -16.147 780.347 L -16.147 780.565 L -16.147 780.769 L -16.147 781.011 L -16.147 781.204 L -16.147 781.396 L -16.147 781.577 L -16.147 781.758 L -16.147 781.939 L -16.147 782.134 L -16.147 782.290 L -16.147 782.434 L -16.147 782.578 L -16.147 782.711 L -16.147 782.844 L -16.147 782.991 L -16.147 783.098 L -16.147 783.206 L -16.147 783.316 L -16.147 783.424 L -16.147 783.641 L -16.147 783.834 L -16.147 784.015 L -16.147 784.210 L -16.147 784.365 L -16.147 784.510 L -16.147 784.668 L -16.147 784.787 L -16.147 784.897 L -16.147 785.018 L -16.147 785.149 L -16.147 785.247 L -16.147 785.366 L -16.147 785.476 L -16.147 785.595 L -16.147 785.717 L -16.147 785.838 L -16.147 785.957 L -16.147 786.056 L -16.147 786.164 L -16.147 786.285 L -16.147 786.393 L -16.147 786.500 L -16.147 786.622 L -16.147 786.755 L -16.147 786.899 L -16.147 787.032 L -16.147 787.153 L -16.147 787.286 L -16.147 787.419 L -16.147 787.563 L -16.147 787.696 L -16.147 787.804 L -16.147 787.914 L -16.147 788.021 "></path>
    <path id="STROKE_3e7e68be-11c7-47dc-a901-469c4a0538f6" opacity="1.000" fill="none" stroke="#171612" stroke-width="2.919" stroke-opacity="1.000" stroke-linecap="round" stroke-linejoin="round" d="M -16.173 788.191 L -15.737 787.755 L -15.665 787.683 L -15.574 787.592 L -15.484 787.502 L -15.381 787.399 L -15.253 787.271 L -15.104 787.122 L -14.952 786.969 L -14.783 786.801 L -14.603 786.620 L -14.403 786.420 L -14.186 786.204 L -13.932 785.950 L -13.714 785.731 L -13.491 785.509 L -13.262 785.280 L -13.031 785.049 L -12.796 784.814 L -12.525 784.543 L -12.294 784.312 L -12.066 784.084 L -11.824 783.842 L -11.588 783.606 L -11.354 783.372 L -11.083 783.100 L -10.864 782.882 L -10.629 782.647 L -10.400 782.418 L -10.152 782.169 L -9.898 781.915 L -9.609 781.627 L -9.355 781.373 L -9.101 781.119 L -8.823 780.841 L -8.539 780.557 L -8.238 780.256 L -7.887 779.905 L -7.596 779.614 L -7.314 779.332 L -7.030 779.048 L -6.752 778.770 L -6.475 778.492 L -6.166 778.184 L -5.919 777.937 L -5.665 777.683 L -5.424 777.442 L -5.175 777.193 L -4.929 776.947 L -4.633 776.651 L -4.391 776.409 L -4.126 776.144 L -3.835 775.853 L -3.546 775.564 L -3.249 775.267 L -2.911 774.929 L -2.633 774.651 L -2.350 774.368 L -2.054 774.072 L -1.765 773.783 L -1.473 773.491 L -1.166 773.184 L -0.925 772.943 L -0.696 772.714 L -0.465 772.483 L -0.237 772.255 L -0.007 772.025 L 0.253 771.765 L 0.476 771.542 L 0.699 771.319 L 0.929 771.089 L 1.171 770.847 L 1.417 770.600 L 1.708 770.310 L 1.962 770.056 L 2.221 769.797 L 2.493 769.525 L 2.776 769.242 L 3.055 768.963 L 3.357 768.661 L 3.586 768.432 L 3.828 768.189 L 4.058 767.960 L 4.274 767.744 L 4.498 767.520 L 4.751 767.267 L 4.957 767.061 L 5.168 766.850 L 5.380 766.638 L 5.602 766.416 L 5.820 766.197 L 6.067 765.951 L 6.279 765.739 L 6.502 765.515 L 6.732 765.286 L 6.967 765.051 L 7.203 764.815 L 7.456 764.562 L 7.662 764.355 L 7.855 764.163 L 8.042 763.976 L 8.223 763.795 L 8.398 763.620 L 8.592 763.426 L 8.743 763.275 L 8.899 763.119 L 9.057 762.961 L 9.202 762.816 L 9.353 762.665 L 9.521 762.497 L 9.667 762.351 L 9.817 762.201 L 9.974 762.043 L 10.144 761.874 L 10.319 761.699 L 10.525 761.493 L 10.712 761.306 L 10.904 761.114 L 11.110 760.908 L 11.320 760.698 L 11.526 760.492 L 11.751 760.267 L 11.924 760.093 L 12.082 759.936 L 12.221 759.796 L 12.353 759.665 L 12.457 759.560 L 12.571 759.446 L 12.644 759.374 L 12.717 759.301 L 12.789 759.229 L 12.934 759.084 L 13.042 758.976 L 13.133 758.885 L 13.230 758.788 L 13.345 758.673 L 13.458 758.560 L 13.585 758.432 L 13.744 758.274 L 13.869 758.148 L 14.003 758.014 L 14.141 757.876 L 14.280 757.738 L 14.400 757.617 L 14.540 757.478 L 14.636 757.382 L 14.721 757.297 L 14.794 757.223 L 14.890 757.128 L 14.968 757.050 L 15.066 756.952 L 15.167 756.851 L 15.283 756.735 L 15.356 756.662 L 15.434 756.584 L 15.513 756.505 L 15.615 756.402 L 15.699 756.319 L 15.791 756.227 L 15.873 756.145 L 15.959 756.058 L 16.043 755.975 L 16.135 755.883 L 16.261 755.756 L 16.364 755.654 L 16.460 755.558 L 16.551 755.467 L 16.647 755.370 L 16.731 755.287 L 16.835 755.182 L 16.907 755.111 L 16.991 755.027 L 17.064 754.954 L 17.142 754.876 L 17.227 754.790 L 17.305 754.713 L 17.384 754.634 L 17.456 754.561 L 17.559 754.459 L 17.649 754.369 L 17.728 754.290 L 17.801 754.217 L 17.886 754.132 L 17.988 754.030 L 18.085 753.933 L 18.175 753.843 L 18.260 753.758 L 18.337 753.681 L 18.405 753.613 L 18.494 753.524 L 18.592 753.426 L 18.682 753.336 L 18.755 753.262 L 18.832 753.186 L 18.912 753.105 L 19.002 753.016 L 19.075 752.943 "></path>
    <path id="STROKE_199db7e5-a388-48ef-846b-c1b578c0bb6e" opacity="1.000" fill="none" stroke="#171612" stroke-width="2.919" stroke-opacity="1.000" stroke-linecap="round" stroke-linejoin="round" d="M 19.315 752.495 L 19.315 752.868 L 19.315 753.097 L 19.315 753.363 L 19.315 753.654 L 19.315 753.954 L 19.315 754.316 L 19.315 754.678 L 19.315 755.077 L 19.315 755.512 L 19.315 755.970 L 19.315 756.454 L 19.315 756.996 L 19.315 757.466 L 19.315 757.938 L 19.315 758.396 L 19.315 758.843 L 19.315 759.264 L 19.315 759.748 L 19.315 760.121 L 19.315 760.483 L 19.315 760.834 L 19.315 761.170 L 19.315 761.484 L 19.315 761.860 L 19.315 762.137 L 19.315 762.414 L 19.315 762.692 L 19.315 762.969 L 19.315 763.246 L 19.315 763.573 L 19.315 763.839 L 19.315 764.116 L 19.315 764.394 L 19.315 764.682 L 19.315 764.973 L 19.315 765.310 L 19.315 765.576 L 19.315 765.853 L 19.315 766.119 L 19.315 766.384 L 19.315 766.639 L 19.315 766.927 L 19.315 767.156 L 19.315 767.374 L 19.315 767.580 L 19.315 767.784 L 19.315 767.977 L 19.315 768.208 L 19.315 768.400 L 19.315 768.581 L 19.315 768.774 L 19.315 768.966 L 19.315 769.172 L 19.315 769.413 L 19.315 769.608 L 19.315 769.800 L 19.315 769.992 L 19.315 770.185 L 19.315 770.391 L 19.315 770.620 L 19.315 770.813 L 19.315 771.019 L 19.315 771.223 L 19.315 771.440 L 19.315 771.658 L 19.315 771.924 L 19.315 772.153 L 19.315 772.382 L 19.315 772.625 L 19.315 772.877 L 19.315 773.131 L 19.315 773.420 L 19.315 773.649 L 19.315 773.878 L 19.315 774.095 L 19.315 774.324 L 19.315 774.542 L 19.315 774.796 L 19.315 775.000 L 19.315 775.206 L 19.315 775.424 L 19.315 775.628 L 19.315 775.846 L 19.315 776.111 L 19.315 776.315 L 19.315 776.533 L 19.315 776.750 L 19.315 776.980 L 19.315 777.197 L 19.315 777.463 L 19.315 777.655 L 19.315 777.862 L 19.315 778.043 L 19.315 778.235 L 19.315 778.404 L 19.315 778.608 L 19.315 778.766 L 19.315 778.911 L 19.315 779.069 L 19.315 779.213 L 19.315 779.369 L 19.315 779.550 L 19.315 779.694 L 19.315 779.841 L 19.315 779.974 L 19.315 780.130 L 19.315 780.274 L 19.315 780.455 L 19.315 780.601 L 19.315 780.746 L 19.315 780.890 L 19.315 781.034 L 19.315 781.167 L 19.315 781.312 L 19.315 781.422 L 19.315 781.614 L 19.315 781.770 L 19.315 781.880 L 19.315 782.024 L 19.315 782.194 L 19.315 782.386 L 19.315 782.578 L 19.315 782.773 L 19.315 782.991 L 19.315 783.183 L 19.315 783.353 L 19.315 783.520 L 19.315 783.641 L 19.315 783.763 L 19.315 783.907 L 19.315 784.040 L 19.315 784.184 L 19.315 784.354 L 19.315 784.535 L 19.315 784.716 L 19.315 784.908 L 19.315 785.053 L 19.315 785.185 L 19.315 785.330 L 19.315 785.440 L 19.315 785.547 L 19.315 785.680 L 19.315 785.802 L 19.315 785.935 L 19.315 786.090 L 19.315 786.223 L 19.315 786.356 L 19.315 786.500 L 19.315 786.622 L 19.315 786.732 L 19.315 786.839 L 19.315 786.984 L 19.315 787.128 L 19.315 787.275 L 19.315 787.442 L 19.315 787.589 L 19.315 787.696 L 19.315 787.804 L 19.315 787.925 L 19.315 788.047 L 19.315 788.166 "></path>
  </g>
</svg>