<?xml version="1.0" encoding="UTF-8" standalone="yes"?>
<svg xmlns="http://www.w3.org/2000/svg" xmlns:xlink="http://www.w3.org/1999/xlink" width="40.955pt" height="35.964pt" version="1.1" viewBox="-20.165 750.530 40.955 35.964">
  <!--
	Exported with Concepts: Smarter Sketching
	Version: 2463 on iOS 17.1
	https://concepts.app/
	-->
  <title>0A1A025D-9134-4C11-842D-4FEEA5DE3199</title>
  <desc>Drawing exported from Concepts: Smarter Sketching</desc>
  <defs></defs>
  <rect x="-20.165" y="750.530" width="40.955" height="35.964" stroke="none" fill="white"></rect>
  <g id="Pen" opacity="1.000">
    <path id="STROKE_a359d2d0-ea42-4b31-a8ef-b3c20b527a05" opacity="1.000" fill="none" stroke="#171612" stroke-width="2.919" stroke-opacity="1.000" stroke-linecap="round" stroke-linejoin="round" d="M -15.836 752.891 L -14.689 752.891 L -14.521 752.891 L -14.326 752.891 L -14.085 752.891 L -13.868 752.891 L -13.624 752.891 L -13.360 752.891 L -13.093 752.891 L -12.816 752.891 L -12.477 752.891 L -12.187 752.891 L -11.873 752.891 L -11.557 752.891 L -11.244 752.891 L -10.940 752.891 L -10.578 752.891 L -10.288 752.891 L -9.998 752.891 L -9.708 752.891 L -9.417 752.891 L -9.127 752.891 L -8.801 752.891 L -8.524 752.891 L -8.247 752.891 L -7.957 752.891 L -7.654 752.891 L -7.341 752.891 L -6.965 752.891 L -6.652 752.891 L -6.335 752.891 L -5.986 752.891 L -5.636 752.891 L -5.260 752.891 L -4.838 752.891 L -4.476 752.891 L -4.100 752.891 L -3.714 752.891 L -3.325 752.891 L -2.953 752.891 L -2.518 752.891 L -2.178 752.891 L -1.829 752.891 L -1.476 752.891 L -1.127 752.891 L -0.787 752.891 L -0.388 752.891 L -0.075 752.891 L 0.265 752.891 L 0.591 752.891 L 0.927 752.891 L 1.254 752.891 L 1.616 752.891 L 1.920 752.891 L 2.223 752.891 L 2.523 752.891 L 2.826 752.891 L 3.116 752.891 L 3.466 752.891 L 3.746 752.891 L 4.023 752.891 L 4.326 752.891 L 4.603 752.891 L 4.880 752.891 L 5.196 752.891 L 5.424 752.891 L 5.668 752.891 L 5.885 752.891 L 6.103 752.891 L 6.320 752.891 L 6.561 752.891 L 6.742 752.891 L 6.924 752.891 L 7.092 752.891 L 7.263 752.891 L 7.431 752.891 L 7.636 752.891 L 7.794 752.891 L 7.952 752.891 L 8.120 752.891 L 8.302 752.891 L 8.470 752.891 L 8.678 752.891 L 8.832 752.891 L 8.978 752.891 L 9.123 752.891 L 9.268 752.891 L 9.413 752.891 L 9.571 752.891 L 9.703 752.891 L 9.825 752.891 L 9.957 752.891 L 10.079 752.891 L 10.210 752.891 L 10.356 752.891 L 10.477 752.891 L 10.586 752.891 L 10.695 752.891 L 10.804 752.891 L 11.035 752.891 L 11.226 752.891 L 11.434 752.891 L 11.651 752.891 L 11.760 752.891 L 11.951 752.891 L 12.060 752.891 L 12.169 752.891 L 12.304 752.891 L 12.422 752.891 L 12.531 752.891 L 12.666 752.891 L 12.785 752.891 L 12.920 752.891 L 13.075 752.891 L 13.210 752.891 L 13.342 752.891 L 13.464 752.891 L 13.596 752.891 L 13.728 752.891 L 13.886 752.891 L 14.008 752.891 L 14.117 752.891 L 14.236 752.891 L 14.344 752.891 L 14.453 752.891 L 14.575 752.891 L 14.756 752.891 L 14.915 752.891 L 15.060 752.891 L 15.192 752.891 L 15.314 752.891 L 15.432 752.891 L 15.518 752.891 L 15.541 752.891 "></path>
    <path id="STROKE_be4d9b39-73c7-42e3-9986-1a5e05fe9752" opacity="1.000" fill="none" stroke="#171612" stroke-width="2.919" stroke-opacity="1.000" stroke-linecap="round" stroke-linejoin="round" d="M -17.853 768.627 L -17.735 768.627 L -17.626 768.627 L -17.481 768.627 L -17.277 768.627 L -17.033 768.627 L -16.733 768.627 L -16.370 768.627 L -15.935 768.627 L -15.450 768.627 L -14.883 768.627 L -14.326 768.627 L -13.759 768.627 L -13.179 768.627 L -12.585 768.627 L -11.982 768.627 L -11.316 768.627 L -10.772 768.627 L -10.242 768.627 L -9.698 768.627 L -9.177 768.627 L -8.646 768.627 L -8.053 768.627 L -7.581 768.627 L -7.097 768.627 L -6.625 768.627 L -6.154 768.627 L -5.682 768.627 L -5.165 768.627 L -4.753 768.627 L -4.341 768.627 L -3.932 768.627 L -3.507 768.627 L -3.098 768.627 L -2.636 768.627 L -2.264 768.627 L -1.888 768.627 L -1.502 768.627 L -1.127 768.627 L -0.741 768.627 L -0.306 768.627 L 0.047 768.627 L 0.420 768.627 L 0.795 768.627 L 1.158 768.627 L 1.507 768.627 L 1.906 768.627 L 2.210 768.627 L 2.513 768.627 L 2.813 768.627 L 3.103 768.627 L 3.393 768.627 L 3.719 768.627 L 3.986 768.627 L 4.277 768.627 L 4.580 768.627 L 4.880 768.627 L 5.196 768.627 L 5.569 768.627 L 5.872 768.627 L 6.185 768.627 L 6.512 768.627 L 6.828 768.627 L 7.155 768.627 L 7.527 768.627 L 7.843 768.627 L 8.157 768.627 L 8.496 768.627 L 8.823 768.627 L 9.136 768.627 L 9.485 768.627 L 9.765 768.627 L 10.029 768.627 L 10.283 768.627 L 10.537 768.627 L 10.781 768.627 L 11.045 768.627 L 11.262 768.627 L 11.480 768.627 L 11.697 768.627 L 11.928 768.627 L 12.159 768.627 L 12.436 768.627 L 12.653 768.627 L 12.871 768.627 L 13.088 768.627 L 13.293 768.627 L 13.500 768.627 L 13.728 768.627 L 13.899 768.627 L 14.054 768.627 L 14.213 768.627 L 14.371 768.627 L 14.516 768.627 L 14.684 768.627 L 14.806 768.627 L 14.925 768.627 L 15.033 768.627 L 15.155 768.627 L 15.277 768.627 L 15.422 768.627 L 15.541 768.627 L 15.663 768.627 L 15.785 768.627 L 15.904 768.627 L 16.026 768.627 L 16.171 768.627 L 16.293 768.627 L 16.425 768.627 L 16.547 768.627 L 16.678 768.627 L 16.800 768.627 L 16.945 768.627 L 17.054 768.627 L 17.259 768.627 L 17.450 768.627 L 17.572 768.627 L 17.753 768.627 L 17.948 768.627 L 18.165 768.627 L 18.333 768.627 L 18.478 768.627 "></path>
    <path id="STROKE_8661b939-1149-44c4-8750-32f1ed69aabd" opacity="1.000" fill="none" stroke="#171612" stroke-width="2.919" stroke-opacity="1.000" stroke-linecap="round" stroke-linejoin="round" d="M -17.781 784.134 L -17.408 784.134 L -17.263 784.134 L -17.095 784.134 L -16.878 784.134 L -16.597 784.134 L -16.271 784.134 L -15.885 784.134 L -15.427 784.134 L -14.893 784.134 L -14.290 784.134 L -13.578 784.134 L -12.912 784.134 L -12.187 784.134 L -11.448 784.134 L -10.713 784.134 L -9.975 784.134 L -9.177 784.134 L -8.547 784.134 L -7.944 784.134 L -7.350 784.134 L -6.770 784.134 L -6.216 784.134 L -5.673 784.134 L -5.056 784.134 L -4.571 784.134 L -4.077 784.134 L -3.543 784.134 L -2.999 784.134 L -2.455 784.134 L -1.829 784.134 L -1.321 784.134 L -0.800 784.134 L -0.279 784.134 L 0.251 784.134 L 0.772 784.134 L 1.326 784.134 L 1.751 784.134 L 2.173 784.134 L 2.572 784.134 L 2.958 784.134 L 3.334 784.134 L 3.746 784.134 L 4.072 784.134 L 4.422 784.134 L 4.784 784.134 L 5.134 784.134 L 5.486 784.134 L 5.872 784.134 L 6.185 784.134 L 6.512 784.134 L 6.838 784.134 L 7.155 784.134 L 7.468 784.134 L 7.830 784.134 L 8.120 784.134 L 8.424 784.134 L 8.724 784.134 L 9.027 784.134 L 9.317 784.134 L 9.643 784.134 L 9.910 784.134 L 10.164 784.134 L 10.418 784.134 L 10.659 784.134 L 10.890 784.134 L 11.143 784.134 L 11.335 784.134 L 11.529 784.134 L 11.724 784.134 L 11.915 784.134 L 12.122 784.134 L 12.363 784.134 L 12.568 784.134 L 12.775 784.134 L 12.980 784.134 L 13.174 784.134 L 13.378 784.134 L 13.619 784.134 L 13.800 784.134 L 13.982 784.134 L 14.176 784.134 L 14.344 784.134 L 14.516 784.134 L 14.697 784.134 L 14.829 784.134 L 14.961 784.134 L 15.083 784.134 L 15.205 784.134 L 15.323 784.134 L 15.482 784.134 L 15.604 784.134 L 15.722 784.134 L 15.858 784.134 L 15.976 784.134 L 16.121 784.134 L 16.279 784.134 L 16.425 784.134 L 16.556 784.134 L 16.692 784.134 L 16.810 784.134 L 16.945 784.134 L 17.077 784.134 L 17.186 784.134 L 17.367 784.134 L 17.535 784.134 L 17.681 784.134 L 17.789 784.134 L 17.934 784.134 L 18.043 784.134 "></path>
  </g>
</svg>