<?xml version="1.0" encoding="UTF-8" standalone="yes"?>
<svg xmlns="http://www.w3.org/2000/svg" xmlns:xlink="http://www.w3.org/1999/xlink" width="36.077pt" height="42.202pt" version="1.1" viewBox="-18.235 747.321 36.077 42.202">
  <!--
	Exported with Concepts: Smarter Sketching
	Version: 2463 on iOS 17.1
	https://concepts.app/
	-->
  <title>0A1A025D-9134-4C11-842D-4FEEA5DE3199</title>
  <desc>Drawing exported from Concepts: Smarter Sketching</desc>
  <defs></defs>
  <rect x="-18.235" y="747.321" width="36.077" height="42.202" stroke="none" fill="white"></rect>
  <g id="Pen" opacity="1.000">
    <path id="STROKE_7cac4594-e197-4c49-ade1-2b7525c9e30e" opacity="1.000" fill="none" stroke="#171612" stroke-width="2.919" stroke-opacity="1.000" stroke-linecap="round" stroke-linejoin="round" d="M -15.862 752.094 L -15.862 752.951 L -15.862 753.253 L -15.862 753.601 L -15.862 754.048 L -15.862 754.520 L -15.862 755.038 L -15.862 755.606 L -15.862 756.208 L -15.862 756.824 L -15.862 757.523 L -15.862 758.091 L -15.862 758.659 L -15.862 759.214 L -15.862 759.757 L -15.862 760.300 L -15.862 760.916 L -15.862 761.385 L -15.862 761.869 L -15.862 762.339 L -15.862 762.797 L -15.862 763.243 L -15.862 763.752 L -15.862 764.162 L -15.862 764.595 L -15.862 765.067 L -15.862 765.536 L -15.862 766.020 L -15.862 766.574 L -15.862 767.046 L -15.862 767.527 L -15.862 768.022 L -15.862 768.531 L -15.862 769.048 L -15.862 769.639 L -15.862 770.123 L -15.862 770.606 L -15.862 771.087 L -15.862 771.571 L -15.862 772.054 L -15.862 772.572 L -15.862 772.970 L -15.862 773.369 L -15.862 773.768 L -15.862 774.166 L -15.862 774.576 L -15.862 775.034 L -15.862 775.408 L -15.862 775.795 L -15.862 776.205 L -15.862 776.615 L -15.862 777.014 L -15.862 777.447 L -15.862 777.774 L -15.862 778.088 L -15.862 778.388 L -15.862 778.691 L -15.862 778.968 L -15.862 779.282 L -15.862 779.524 L -15.862 779.776 L -15.862 780.042 L -15.862 780.296 L -15.862 780.562 L -15.862 780.862 L -15.862 781.105 L -15.862 781.334 L -15.862 781.575 L -15.862 781.792 L -15.862 782.010 L -15.862 782.239 L -15.862 782.409 L -15.862 782.564 L -15.862 782.720 L -15.862 782.867 L -15.862 783.023 L -15.862 783.204 L -15.862 783.362 L -15.862 783.506 L -15.862 783.675 L -15.862 783.831 L -15.862 784.001 L -15.862 784.205 L -15.862 784.374 L -15.862 784.555 L -15.862 784.736 L -15.862 784.929 L -15.862 785.123 L -15.862 785.352 L -15.862 785.533 L -15.862 785.703 L -15.862 785.859 L -15.862 786.003 L -15.862 786.136 L -15.862 786.280 L -15.862 786.461 L -15.862 786.594 L -15.862 786.704 "></path>
    <path id="STROKE_f6fc500b-c1cf-499e-97ae-73d52dad2a11" opacity="1.000" fill="none" stroke="#171612" stroke-width="2.919" stroke-opacity="1.000" stroke-linecap="round" stroke-linejoin="round" d="M 0.591 757.138 L 0.591 758.006 L 0.591 758.346 L 0.591 758.742 L 0.591 759.262 L 0.591 759.793 L 0.591 760.384 L 0.591 761.012 L 0.591 761.651 L 0.591 762.279 L 0.591 762.966 L 0.591 763.498 L 0.591 763.992 L 0.591 764.476 L 0.591 764.934 L 0.591 765.367 L 0.591 765.850 L 0.591 766.201 L 0.591 766.551 L 0.591 766.888 L 0.591 767.239 L 0.591 767.601 L 0.591 768.036 L 0.591 768.384 L 0.591 768.771 L 0.591 769.158 L 0.591 769.532 L 0.591 769.917 L 0.591 770.327 L 0.591 770.666 L 0.591 770.991 L 0.591 771.305 L 0.591 771.619 L 0.591 771.933 L 0.591 772.272 L 0.591 772.524 L 0.591 772.766 L 0.591 773.007 L 0.591 773.225 L 0.591 773.454 L 0.591 773.719 L 0.591 773.923 L 0.591 774.152 L 0.591 774.381 L 0.591 774.624 L 0.591 774.865 L 0.591 775.142 L 0.591 775.371 L 0.591 775.589 L 0.591 775.818 L 0.591 776.035 L 0.591 776.253 L 0.591 776.519 L 0.591 776.736 L 0.591 776.966 L 0.591 777.183 L 0.591 777.412 L 0.591 777.641 L 0.591 777.882 L 0.591 778.074 L 0.591 778.244 L 0.591 778.425 L 0.591 778.583 L 0.591 778.750 L 0.591 778.931 L 0.591 779.089 L 0.591 779.245 L 0.591 779.403 L 0.591 779.559 L 0.591 779.728 L 0.591 779.935 L 0.591 780.090 L 0.591 780.260 L 0.591 780.429 L 0.591 780.610 L 0.591 780.803 L 0.591 781.020 L 0.591 781.201 L 0.591 781.382 L 0.591 781.563 L 0.591 781.744 L 0.591 781.925 L 0.591 782.118 L 0.591 782.276 L 0.591 782.432 L 0.591 782.576 L 0.591 782.720 L 0.591 782.853 L 0.591 783.011 L 0.591 783.204 L 0.591 783.325 "></path>
    <path id="STROKE_47788d4b-76b9-4d7c-be15-67ee529231af" opacity="1.000" fill="none" stroke="#171612" stroke-width="2.919" stroke-opacity="1.000" stroke-linecap="round" stroke-linejoin="round" d="M 15.469 749.645 L 15.469 750.041 L 15.469 750.392 L 15.469 750.815 L 15.469 751.274 L 15.469 751.780 L 15.469 752.359 L 15.469 753.010 L 15.469 753.686 L 15.469 754.435 L 15.469 755.074 L 15.469 755.713 L 15.469 756.330 L 15.469 756.932 L 15.469 757.523 L 15.469 758.176 L 15.469 758.694 L 15.469 759.214 L 15.469 759.757 L 15.469 760.311 L 15.469 760.879 L 15.469 761.530 L 15.469 762.061 L 15.469 762.593 L 15.469 763.110 L 15.469 763.619 L 15.469 764.100 L 15.469 764.643 L 15.469 765.053 L 15.469 765.465 L 15.469 765.876 L 15.469 766.286 L 15.469 766.696 L 15.469 767.154 L 15.469 767.516 L 15.469 767.878 L 15.469 768.240 L 15.469 768.602 L 15.469 768.952 L 15.469 769.339 L 15.469 769.651 L 15.469 769.953 L 15.469 770.267 L 15.469 770.570 L 15.469 770.858 L 15.469 771.172 L 15.469 771.426 L 15.469 771.678 L 15.469 771.958 L 15.469 772.224 L 15.469 772.501 L 15.469 772.826 L 15.469 773.092 L 15.469 773.369 L 15.469 773.646 L 15.469 773.912 L 15.469 774.178 L 15.469 774.480 L 15.469 774.721 L 15.469 774.961 L 15.469 775.215 L 15.469 775.456 L 15.469 775.710 L 15.469 775.999 L 15.469 776.216 L 15.469 776.446 L 15.469 776.675 L 15.469 776.904 L 15.469 777.135 L 15.469 777.387 L 15.469 777.593 L 15.469 777.797 L 15.469 778.015 L 15.469 778.232 L 15.469 778.436 L 15.469 778.679 L 15.469 778.860 L 15.469 779.041 L 15.469 779.222 L 15.469 779.392 L 15.469 779.573 L 15.469 779.765 L 15.469 779.921 L 15.469 780.079 L 15.469 780.235 L 15.469 780.393 L 15.469 780.548 L 15.469 780.743 L 15.469 780.888 L 15.469 781.032 L 15.469 781.188 L 15.469 781.334 L 15.469 781.490 L 15.469 781.671 L 15.469 781.829 L 15.469 781.973 L 15.469 782.118 L 15.469 782.276 L 15.469 782.420 L 15.469 782.601 L 15.469 782.734 L 15.469 782.878 L 15.469 783.011 L 15.469 783.144 L 15.469 783.277 L 15.469 783.433 L 15.469 783.554 L 15.469 783.662 L 15.469 783.772 L 15.469 783.879 L 15.469 783.989 L 15.469 784.122 L 15.469 784.338 L 15.469 784.448 L 15.469 784.567 L 15.469 784.699 L 15.469 784.858 L 15.469 784.990 L 15.469 785.123 L 15.469 785.256 L 15.469 785.401 L 15.469 785.545 L 15.469 785.714 L 15.469 785.847 L 15.469 785.980 L 15.469 786.113 L 15.469 786.232 L 15.469 786.342 L 15.469 786.475 L 15.469 786.644 L 15.469 786.800 L 15.469 786.933 L 15.469 787.055 L 15.469 787.199 "></path>
  </g>
</svg>