<?xml version="1.0" encoding="UTF-8" standalone="yes"?>
<svg xmlns="http://www.w3.org/2000/svg" xmlns:xlink="http://www.w3.org/1999/xlink" width="34.399pt" height="33.337pt" version="1.1" viewBox="-17.372 751.548 34.399 33.337">
  <!--
	Exported with Concepts: Smarter Sketching
	Version: 2463 on iOS 17.1
	https://concepts.app/
	-->
  <title>0A1A025D-9134-4C11-842D-4FEEA5DE3199</title>
  <desc>Drawing exported from Concepts: Smarter Sketching</desc>
  <defs></defs>
  <rect x="-17.372" y="751.548" width="34.399" height="33.337" stroke="none" fill="white"></rect>
  <g id="Pen" opacity="1.000">
    <path id="STROKE_f7f3e0b3-8eff-4d44-84a4-e97832959f28" opacity="1.000" fill="none" stroke="#171612" stroke-width="2.919" stroke-opacity="1.000" stroke-linecap="round" stroke-linejoin="round" d="M -13.021 761.363 L -12.853 761.363 L -12.681 761.363 L -12.454 761.363 L -12.200 761.363 L -11.910 761.363 L -11.557 761.363 L -11.194 761.363 L -10.786 761.363 L -10.301 761.363 L -9.780 761.363 L -9.226 761.363 L -8.574 761.363 L -7.980 761.363 L -7.377 761.363 L -6.770 761.363 L -6.154 761.363 L -5.537 761.363 L -4.848 761.363 L -4.281 761.363 L -3.714 761.363 L -3.134 761.363 L -2.554 761.363 L -1.974 761.363 L -1.308 761.363 L -0.777 761.363 L -0.220 761.363 L 0.360 761.363 L 0.954 761.363 L 1.534 761.363 L 2.210 761.363 L 2.767 761.363 L 3.334 761.363 L 3.914 761.363 L 4.507 761.363 L 5.074 761.363 L 5.704 761.363 L 6.199 761.363 L 6.683 761.363 L 7.164 761.363 L 7.636 761.363 L 8.097 761.363 L 8.615 761.363 L 9.014 761.363 L 9.403 761.363 L 9.775 761.363 L 10.138 761.363 L 10.491 761.363 L 10.853 761.363 L 11.130 761.363 L 11.384 761.363 L 11.638 761.363 L 11.905 761.363 L 12.159 761.363 L 12.485 761.363 L 12.749 761.363 L 13.029 761.363 L 13.293 761.363 L 13.560 761.363 L 13.800 761.363 L 14.044 761.363 L 14.213 761.363 L 14.371 761.363 L 14.489 761.363 L 14.598 761.363 L 14.780 761.363 L 14.878 761.363 L 14.684 761.363 "></path>
    <path id="STROKE_0df7fa41-ef8f-4fd4-8355-98378483473c" opacity="1.000" fill="none" stroke="#171612" stroke-width="2.919" stroke-opacity="1.000" stroke-linecap="round" stroke-linejoin="round" d="M -14.168 773.477 L -13.637 773.477 L -13.456 773.477 L -13.238 773.477 L -12.984 773.477 L -12.671 773.477 L -12.295 773.477 L -11.847 773.477 L -11.339 773.477 L -10.723 773.477 L -10.106 773.477 L -9.431 773.477 L -8.719 773.477 L -7.957 773.477 L -7.182 773.477 L -6.325 773.477 L -5.600 773.477 L -4.885 773.477 L -4.186 773.477 L -3.497 773.477 L -2.831 773.477 L -2.106 773.477 L -1.539 773.477 L -0.968 773.477 L -0.388 773.477 L 0.202 773.477 L 0.809 773.477 L 1.498 773.477 L 2.065 773.477 L 2.645 773.477 L 3.212 773.477 L 3.792 773.477 L 4.372 773.477 L 4.989 773.477 L 5.473 773.477 L 5.945 773.477 L 6.403 773.477 L 6.851 773.477 L 7.263 773.477 L 7.735 773.477 L 8.084 773.477 L 8.460 773.477 L 8.823 773.477 L 9.172 773.477 L 9.498 773.477 L 9.848 773.477 L 10.115 773.477 L 10.369 773.477 L 10.623 773.477 L 10.863 773.477 L 11.094 773.477 L 11.361 773.477 L 11.565 773.477 L 11.796 773.477 L 12.024 773.477 L 12.277 773.477 L 12.531 773.477 L 12.811 773.477 L 13.016 773.477 L 13.210 773.477 L 13.392 773.477 L 13.537 773.477 L 13.646 773.477 L 13.754 773.477 L 13.573 773.477 "></path>
    <path id="STROKE_bba11859-f909-4c8f-9d7c-056ac41ba8ac" opacity="1.000" fill="none" stroke="#171612" stroke-width="2.919" stroke-opacity="1.000" stroke-linecap="round" stroke-linejoin="round" d="M -15.088 782.601 L -14.973 782.486 L -14.846 782.359 L -14.695 782.208 L -14.501 782.015 L -14.279 781.792 L -14.037 781.550 L -13.753 781.266 L -13.433 780.947 L -13.063 780.577 L -12.661 780.174 L -12.189 779.703 L -11.766 779.280 L -11.324 778.838 L -10.885 778.399 L -10.450 777.963 L -10.021 777.535 L -9.538 777.052 L -9.151 776.665 L -8.759 776.272 L -8.361 775.874 L -7.955 775.468 L -7.551 775.065 L -7.093 774.606 L -6.718 774.231 L -6.344 773.857 L -5.956 773.470 L -5.565 773.078 L -5.148 772.661 L -4.678 772.191 L -4.279 771.792 L -3.856 771.370 L -3.415 770.929 L -2.962 770.475 L -2.492 770.006 L -1.984 769.498 L -1.561 769.075 L -1.139 768.652 L -0.704 768.218 L -0.268 767.782 L 0.147 767.367 L 0.600 766.913 L 0.962 766.551 L 1.343 766.170 L 1.719 765.795 L 2.092 765.421 L 2.455 765.059 L 2.864 764.649 L 3.191 764.322 L 3.541 763.973 L 3.897 763.616 L 4.266 763.247 L 4.634 762.879 L 5.051 762.462 L 5.408 762.105 L 5.763 761.750 L 6.114 761.400 L 6.452 761.062 L 6.784 760.729 L 7.134 760.379 L 7.400 760.113 L 7.660 759.854 L 7.914 759.600 L 8.168 759.346 L 8.397 759.116 L 8.651 758.862 L 8.856 758.657 L 9.067 758.446 L 9.280 758.234 L 9.490 758.023 L 9.701 757.812 L 9.950 757.563 L 10.147 757.366 L 10.353 757.160 L 10.571 756.943 L 10.782 756.732 L 10.994 756.519 L 11.218 756.295 L 11.386 756.127 L 11.562 755.951 L 11.724 755.789 L 11.871 755.643 L 12.002 755.512 L 12.148 755.365 L 12.245 755.268 L 12.335 755.179 L 12.419 755.094 L 12.504 755.010 L 12.582 754.931 L 12.691 754.822 L 12.776 754.738 L 12.867 754.647 L 12.969 754.544 L 13.071 754.443 L 13.181 754.333 L 13.289 754.224 L 13.373 754.140 L 13.453 754.061 L 13.584 753.930 L 13.681 753.833 L 13.670 753.843 "></path>
  </g>
</svg>