<?xml version="1.0" encoding="UTF-8" standalone="yes"?>
<svg xmlns="http://www.w3.org/2000/svg" xmlns:xlink="http://www.w3.org/1999/xlink" width="35.773pt" height="35.927pt" version="1.1" viewBox="-19.285 750.241 35.773 35.927">
  <!--
	Exported with Concepts: Smarter Sketching
	Version: 2463 on iOS 17.1
	https://concepts.app/
	-->
  <title>0A1A025D-9134-4C11-842D-4FEEA5DE3199</title>
  <desc>Drawing exported from Concepts: Smarter Sketching</desc>
  <defs></defs>
  <rect x="-19.285" y="750.241" width="35.773" height="35.927" stroke="none" fill="white"></rect>
  <g id="Pen" opacity="1.000">
    <path id="STROKE_05f04d8c-3344-4041-98e7-58fe43f327d4" opacity="1.000" fill="none" stroke="#171612" stroke-width="2.919" stroke-opacity="1.000" stroke-linecap="round" stroke-linejoin="round" d="M -16.538 752.721 L -14.412 752.721 L -13.977 752.721 L -13.492 752.721 L -12.935 752.721 L -12.272 752.721 L -11.643 752.721 L -10.977 752.721 L -10.288 752.721 L -9.576 752.721 L -8.864 752.721 L -8.066 752.721 L -7.400 752.721 L -6.734 752.721 L -6.081 752.721 L -5.429 752.721 L -4.789 752.721 L -4.077 752.721 L -3.497 752.721 L -2.917 752.721 L -2.346 752.721 L -1.792 752.721 L -1.235 752.721 L -0.632 752.721 L -0.161 752.721 L 0.324 752.721 L 0.795 752.721 L 1.244 752.721 L 1.679 752.721 L 2.160 752.721 L 2.572 752.721 L 2.971 752.721 L 3.383 752.721 L 3.782 752.721 L 4.181 752.721 L 4.626 752.721 L 4.979 752.721 L 5.305 752.721 L 5.605 752.721 L 5.908 752.721 L 6.185 752.721 L 6.502 752.721 L 6.729 752.721 L 6.947 752.721 L 7.155 752.721 L 7.372 752.721 L 7.576 752.721 L 7.807 752.721 L 7.989 752.721 L 8.180 752.721 L 8.387 752.721 L 8.592 752.721 L 8.786 752.721 L 9.004 752.721 L 9.185 752.721 L 9.353 752.721 L 9.548 752.721 L 9.729 752.721 L 9.910 752.721 L 10.115 752.721 L 10.283 752.721 L 10.454 752.721 L 10.609 752.721 L 10.768 752.721 L 10.926 752.721 L 11.107 752.721 L 11.252 752.721 L 11.397 752.721 L 11.529 752.721 L 11.674 752.721 L 11.806 752.721 L 11.964 752.721 L 12.086 752.721 L 12.195 752.721 L 12.304 752.721 L 12.413 752.721 L 12.521 752.721 L 12.640 752.721 L 12.811 752.721 L 13.003 752.721 L 13.102 752.721 L 13.220 752.721 L 13.319 752.721 L 13.510 752.721 L 13.692 752.721 L 13.791 752.721 L 13.922 752.721 L 14.044 752.721 L 14.176 752.721 L 14.176 763.534 L 14.176 763.883 L 14.176 764.258 L 14.176 764.620 L 14.176 764.982 L 14.176 765.392 L 14.176 765.717 L 14.176 766.031 L 14.176 766.357 L 14.176 766.684 L 14.176 767.010 L 14.176 767.394 L 14.176 767.708 L 14.176 768.036 L 14.176 768.361 L 14.176 768.675 L 14.176 768.989 L 14.176 769.339 L 14.176 769.603 L 14.176 769.882 L 14.176 770.159 L 14.176 770.448 L 14.176 770.739 L 14.176 771.087 L 14.176 771.378 L 14.176 771.678 L 14.176 771.981 L 14.176 772.294 L 14.176 772.620 L 14.176 772.982 L 14.176 773.273 L 14.176 773.550 L 14.176 773.827 L 14.176 774.093 L 14.176 774.347 L 14.176 774.624 L 14.176 774.828 L 14.176 775.034 L 14.176 775.227 L 14.176 775.419 L 14.176 775.625 L 14.176 775.854 L 14.176 776.047 L 14.176 776.242 L 14.176 776.434 L 14.176 776.640 L 14.176 776.833 L 14.176 777.025 L 14.176 777.243 L 14.176 777.412 L 14.176 777.568 L 14.176 777.726 L 14.176 777.870 L 14.176 778.015 L 14.176 778.173 L 14.176 778.292 L 14.176 778.402 L 14.176 778.510 L 14.176 778.702 L 14.176 778.812 L 14.176 778.979 L 14.176 779.149 L 14.176 779.355 L 14.176 779.536 L 14.176 779.717 L 14.176 779.909 L 14.176 780.054 L 14.176 780.175 L 14.176 780.308 L 14.176 780.429 L 14.176 780.548 L 14.176 780.658 L 14.176 780.778 L 14.176 780.888 L 14.176 781.057 L 14.176 781.201 L 14.176 781.346 L 14.176 781.467 L 14.176 781.586 L 14.176 781.719 L 14.176 781.852 L 14.176 781.973 L 14.176 782.095 L 14.176 782.202 L 14.176 782.310 L 14.176 782.420 L 14.176 782.516 L 14.176 782.624 L 14.176 782.720 L 14.176 782.805 L 14.176 782.819 L 14.176 782.842 L 14.176 782.867 L 14.176 782.890 L 14.176 782.915 L 14.176 782.938 L 14.176 782.986 L 14.176 783.023 L 14.176 783.059 L 14.176 783.096 L 14.176 783.144 L 14.176 783.181 L 14.176 783.215 L 14.176 783.252 L 14.176 783.288 L 14.176 783.314 L 14.176 783.336 L 14.176 783.348 L 14.176 783.362 L 14.176 783.373 L 14.176 783.385 L 14.176 783.410 L 14.176 783.433 L 14.176 783.469 L 14.176 783.517 L 14.176 783.577 L 14.176 783.627 L 14.176 783.687 L 14.176 783.746 L 14.176 783.856 L 5.895 783.856 L 5.582 783.856 L 5.328 783.856 L 5.061 783.856 L 4.807 783.856 L 4.544 783.856 L 4.277 783.856 L 3.963 783.856 L 3.710 783.856 L 3.456 783.856 L 3.189 783.856 L 2.935 783.856 L 2.681 783.856 L 2.378 783.856 L 2.137 783.856 L 1.896 783.856 L 1.643 783.856 L 1.376 783.856 L 1.122 783.856 L 0.832 783.856 L 0.601 783.856 L 0.360 783.856 L 0.106 783.856 L -0.147 783.856 L -0.388 783.856 L -0.678 783.856 L -0.909 783.856 L -1.150 783.856 L -1.380 783.856 L -1.611 783.856 L -1.839 783.856 L -2.106 783.856 L -2.310 783.856 L -2.518 783.856 L -2.709 783.856 L -2.917 783.856 L -3.108 783.856 L -3.325 783.856 L -3.507 783.856 L -3.678 783.856 L -3.869 783.856 L -4.051 783.856 L -4.245 783.856 L -4.463 783.856 L -4.644 783.856 L -4.838 783.856 L -5.030 783.856 L -5.237 783.856 L -5.455 783.856 L -5.709 783.856 L -5.913 783.856 L -6.131 783.856 L -6.348 783.856 L -6.566 783.856 L -6.770 783.856 L -7.024 783.856 L -7.219 783.856 L -7.413 783.856 L -7.604 783.856 L -7.799 783.856 L -7.993 783.856 L -8.221 783.856 L -8.392 783.856 L -8.560 783.856 L -8.719 783.856 L -8.874 783.856 L -9.032 783.856 L -9.213 783.856 L -9.345 783.856 L -9.490 783.856 L -9.635 783.856 L -9.780 783.856 L -9.938 783.856 L -10.133 783.856 L -10.278 783.856 L -10.433 783.856 L -10.604 783.856 L -10.759 783.856 L -10.917 783.856 L -11.112 783.856 L -11.257 783.856 L -11.402 783.856 L -11.547 783.856 L -11.692 783.856 L -11.824 783.856 L -11.992 783.856 L -12.114 783.856 L -12.223 783.856 L -12.332 783.856 L -12.526 783.856 L -12.645 783.856 L -12.816 783.856 L -13.007 783.856 L -13.215 783.856 L -13.396 783.856 L -13.578 783.856 L -13.769 783.856 L -13.904 783.856 L -14.036 783.856 L -14.168 783.856 L -14.290 783.856 L -14.412 783.856 L -14.567 783.856 L -14.725 783.856 L -14.870 783.856 L -15.038 783.856 L -15.183 783.856 L -15.318 783.856 L -15.450 783.856 L -15.582 783.856 L -15.681 783.856 L -15.800 783.856 L -15.908 783.856 L -16.030 783.856 L -16.162 783.856 L -16.271 783.856 L -16.393 783.856 L -16.525 783.856 L -16.634 783.856 L -16.719 783.856 L -16.742 783.856 L -16.779 783.856 L -16.805 783.856 L -16.841 783.856 L -16.864 783.856 L -16.888 783.856 L -16.901 783.856 L -16.914 783.856 L -16.924 783.856 L -16.950 783.856 L -16.960 783.856 L -16.973 783.856 L -16.973 772.150 L -16.973 771.848 L -16.973 771.534 L -16.973 771.183 L -16.973 770.931 L -16.973 770.677 L -16.973 770.437 L -16.973 770.208 L -16.973 769.978 L -16.973 769.713 L -16.973 769.495 L -16.973 769.277 L -16.973 769.048 L -16.973 768.808 L -16.973 768.554 L -16.973 768.251 L -16.973 767.999 L -16.973 767.745 L -16.973 767.468 L -16.973 767.179 L -16.973 766.888 L -16.973 766.551 L -16.973 766.286 L -16.973 766.031 L -16.973 765.779 L -16.973 765.536 L -16.973 765.307 L -16.973 765.053 L -16.973 764.872 L -16.973 764.705 L -16.973 764.524 L -16.973 764.343 L -16.973 764.148 L -16.973 763.919 L -16.973 763.715 L -16.973 763.509 L -16.973 763.280 L -16.973 763.039 L -16.973 762.785 L -16.973 762.483 L -16.973 762.231 L -16.973 761.965 L -16.973 761.711 L -16.973 761.445 L -16.973 761.193 L -16.973 760.916 L -16.973 760.698 L -16.973 760.492 L -16.973 760.311 L -16.973 760.130 L -16.973 759.974 L -16.973 759.805 L -16.973 759.683 L -16.973 759.564 L -16.973 759.454 L -16.973 759.347 L -16.973 759.225 L -16.973 759.081 L -16.973 758.959 L -16.973 758.827 L -16.973 758.682 L -16.973 758.526 L -16.973 758.357 L -16.973 758.165 L -16.973 757.984 L -16.973 757.814 L -16.973 757.633 L -16.973 757.452 L -16.973 757.271 L -16.973 757.076 L -16.973 756.921 L -16.973 756.776 L -16.973 756.643 L -16.973 756.511 L -16.973 756.389 L -16.973 756.245 L -16.973 756.137 L -16.973 756.027 L -16.973 755.919 L -16.973 755.798 L -16.973 755.677 L -16.973 755.532 L -16.973 755.413 L -16.973 755.280 L -16.973 755.147 L -16.973 755.015 L -16.973 754.882 L -16.973 754.724 L -16.973 754.605 L -16.973 754.483 L -16.973 754.373 L -16.973 754.266 L -16.973 754.062 L -16.973 753.892 L -16.973 753.734 L -16.973 753.553 L -16.973 753.386 L -16.973 753.287 L -16.973 753.095 L -16.973 752.973 L -16.973 752.806 L -16.973 752.648 L -16.973 752.504 L -16.973 752.408 L -16.973 752.589 "></path>
  </g>
</svg>