<?xml version="1.0" encoding="UTF-8" standalone="yes"?>
<svg xmlns="http://www.w3.org/2000/svg" xmlns:xlink="http://www.w3.org/1999/xlink" width="42.041pt" height="50.130pt" version="1.1" viewBox="-20.303 743.075 42.041 50.130">
  <!--
	Exported with Concepts: Smarter Sketching
	Version: 2463 on iOS 17.1
	https://concepts.app/
	-->
  <title>0A1A025D-9134-4C11-842D-4FEEA5DE3199</title>
  <desc>Drawing exported from Concepts: Smarter Sketching</desc>
  <defs></defs>
  <rect x="-20.303" y="743.075" width="42.041" height="50.130" stroke="none" fill="white"></rect>
  <g id="Pen" opacity="1.000">
    <path id="STROKE_37ba03c8-0bd1-4455-9bf8-69909f430a93" opacity="1.000" fill="none" stroke="#171612" stroke-width="3.919" stroke-opacity="1.000" stroke-linecap="round" stroke-linejoin="round" d="M 18.786 767.109 Q 18.788 767.316 18.786 767.524 Q 18.784 767.731 18.777 767.938 Q 18.770 768.145 18.758 768.352 Q 18.747 768.559 18.731 768.765 Q 18.715 768.972 18.694 769.178 Q 18.673 769.384 18.648 769.589 Q 18.623 769.795 18.593 770.000 Q 18.563 770.205 18.528 770.409 Q 18.494 770.613 18.455 770.817 Q 18.416 771.020 18.372 771.223 Q 18.329 771.425 18.281 771.626 Q 18.233 771.828 18.180 772.028 Q 18.128 772.228 18.071 772.427 Q 18.014 772.626 17.953 772.824 Q 17.891 773.021 17.826 773.217 Q 17.760 773.414 17.690 773.608 Q 17.620 773.803 17.545 773.996 Q 17.471 774.189 17.392 774.380 Q 17.314 774.571 17.231 774.760 Q 17.148 774.950 17.061 775.137 Q 16.973 775.324 16.882 775.510 Q 16.791 775.695 16.696 775.878 Q 16.600 776.062 16.501 776.242 Q 16.401 776.423 16.298 776.602 Q 16.194 776.781 16.087 776.957 Q 15.980 777.133 15.868 777.307 Q 15.757 777.481 15.642 777.652 Q 15.527 777.823 15.408 777.991 Q 15.289 778.160 15.166 778.325 Q 15.044 778.491 14.918 778.654 Q 14.791 778.817 14.661 778.976 Q 14.532 779.136 14.398 779.293 Q 14.265 779.450 14.128 779.604 Q 13.991 779.758 13.851 779.908 Q 13.710 780.059 13.567 780.206 Q 13.423 780.353 13.276 780.497 Q 13.130 780.641 12.980 780.782 Q 12.830 780.923 12.677 781.060 Q 12.523 781.197 12.367 781.330 Q 12.211 781.464 12.052 781.594 Q 11.893 781.724 11.731 781.850 Q 11.569 781.976 11.405 782.099 Q 11.240 782.221 11.073 782.340 Q 10.905 782.459 10.735 782.574 Q 10.565 782.689 10.393 782.800 Q 10.221 782.910 10.046 783.017 Q 9.871 783.124 9.694 783.227 Q 9.516 783.330 9.337 783.429 Q 9.157 783.528 8.976 783.623 Q 8.794 783.717 8.610 783.808 Q 8.427 783.898 8.241 783.984 Q 8.055 784.071 7.868 784.153 Q 7.680 784.235 7.491 784.312 Q 7.302 784.390 7.111 784.463 Q 6.920 784.537 6.727 784.605 Q 6.534 784.674 6.340 784.739 Q 6.146 784.803 5.951 784.863 Q 5.755 784.923 5.559 784.979 Q 5.362 785.034 5.164 785.085 Q 4.966 785.136 4.767 785.183 Q 4.568 785.229 4.368 785.271 Q 4.168 785.313 3.967 785.350 Q 3.766 785.387 3.565 785.420 Q 3.363 785.453 3.161 785.481 Q 2.958 785.509 2.755 785.532 Q 2.553 785.555 2.349 785.574 Q 2.146 785.593 1.942 785.607 Q 1.738 785.621 1.534 785.630 Q 1.330 785.640 1.126 785.644 Q 0.922 785.649 0.718 785.649 Q 0.514 785.649 0.309 785.644 Q 0.105 785.640 -0.099 785.630 Q -0.303 785.621 -0.506 785.607 Q -0.710 785.593 -0.914 785.574 Q -1.117 785.555 -1.320 785.532 Q -1.523 785.509 -1.725 785.481 Q -1.927 785.453 -2.129 785.420 Q -2.331 785.387 -2.532 785.350 Q -2.733 785.313 -2.933 785.271 Q -3.132 785.229 -3.332 785.183 Q -3.531 785.136 -3.728 785.085 Q -3.926 785.034 -4.123 784.979 Q -4.320 784.923 -4.515 784.863 Q -4.711 784.803 -4.905 784.739 Q -5.099 784.674 -5.292 784.606 Q -5.484 784.537 -5.675 784.463 Q -5.866 784.390 -6.055 784.312 Q -6.245 784.235 -6.432 784.153 Q -6.620 784.071 -6.805 783.984 Q -6.991 783.898 -7.175 783.808 Q -7.359 783.717 -7.540 783.623 Q -7.722 783.528 -7.901 783.429 Q -8.081 783.330 -8.258 783.227 Q -8.435 783.124 -8.610 783.017 Q -8.785 782.911 -8.957 782.800 Q -9.130 782.689 -9.300 782.574 Q -9.470 782.459 -9.637 782.340 Q -9.805 782.221 -9.969 782.099 Q -10.134 781.976 -10.296 781.850 Q -10.458 781.724 -10.617 781.594 Q -10.776 781.464 -10.932 781.330 Q -11.088 781.197 -11.241 781.060 Q -11.394 780.923 -11.544 780.782 Q -11.694 780.641 -11.841 780.497 Q -11.988 780.353 -12.131 780.206 Q -12.275 780.059 -12.415 779.908 Q -12.555 779.758 -12.692 779.604 Q -12.829 779.450 -12.963 779.293 Q -13.096 779.136 -13.226 778.977 Q -13.356 778.817 -13.482 778.654 Q -13.608 778.491 -13.731 778.325 Q -13.854 778.160 -13.972 777.991 Q -14.091 777.823 -14.207 777.652 Q -14.322 777.481 -14.433 777.307 Q -14.544 777.133 -14.652 776.957 Q -14.759 776.781 -14.862 776.602 Q -14.966 776.423 -15.065 776.242 Q -15.165 776.062 -15.260 775.878 Q -15.355 775.695 -15.447 775.510 Q -15.538 775.324 -15.625 775.137 Q -15.712 774.950 -15.795 774.760 Q -15.878 774.571 -15.957 774.380 Q -16.035 774.189 -16.110 773.996 Q -16.184 773.803 -16.254 773.608 Q -16.324 773.414 -16.390 773.217 Q -16.456 773.021 -16.517 772.824 Q -16.579 772.626 -16.635 772.427 Q -16.692 772.228 -16.745 772.028 Q -16.797 771.828 -16.845 771.626 Q -16.893 771.425 -16.937 771.223 Q -16.980 771.020 -17.019 770.817 Q -17.058 770.613 -17.093 770.409 Q -17.127 770.205 -17.157 770.000 Q -17.187 769.795 -17.212 769.589 Q -17.238 769.384 -17.258 769.178 Q -17.279 768.972 -17.295 768.765 Q -17.311 768.559 -17.323 768.352 Q -17.334 768.145 -17.341 767.938 Q -17.348 767.731 -17.351 767.524 Q -17.353 767.316 -17.351 767.109 Q -17.348 766.902 -17.341 766.695 Q -17.334 766.488 -17.323 766.281 Q -17.311 766.074 -17.295 765.868 Q -17.279 765.661 -17.258 765.455 Q -17.238 765.249 -17.212 765.043 Q -17.187 764.838 -17.157 764.633 Q -17.127 764.428 -17.093 764.224 Q -17.058 764.019 -17.019 763.816 Q -16.980 763.613 -16.937 763.410 Q -16.893 763.208 -16.845 763.007 Q -16.797 762.805 -16.745 762.605 Q -16.692 762.405 -16.635 762.206 Q -16.579 762.007 -16.517 761.809 Q -16.456 761.612 -16.390 761.415 Q -16.324 761.219 -16.254 761.025 Q -16.184 760.830 -16.110 760.637 Q -16.035 760.444 -15.957 760.253 Q -15.878 760.062 -15.795 759.872 Q -15.712 759.683 -15.625 759.496 Q -15.538 759.308 -15.447 759.123 Q -15.355 758.938 -15.260 758.755 Q -15.165 758.571 -15.065 758.390 Q -14.966 758.209 -14.862 758.031 Q -14.759 757.852 -14.652 757.676 Q -14.544 757.500 -14.433 757.326 Q -14.322 757.152 -14.207 756.981 Q -14.091 756.810 -13.973 756.642 Q -13.854 756.473 -13.731 756.307 Q -13.608 756.142 -13.482 755.979 Q -13.356 755.816 -13.226 755.656 Q -13.096 755.497 -12.963 755.340 Q -12.829 755.183 -12.692 755.029 Q -12.555 754.875 -12.415 754.725 Q -12.275 754.574 -12.131 754.427 Q -11.988 754.279 -11.841 754.135 Q -11.694 753.991 -11.544 753.851 Q -11.394 753.710 -11.241 753.573 Q -11.088 753.436 -10.932 753.302 Q -10.776 753.169 -10.617 753.039 Q -10.458 752.909 -10.296 752.783 Q -10.134 752.656 -9.969 752.534 Q -9.805 752.411 -9.637 752.293 Q -9.470 752.174 -9.300 752.059 Q -9.130 751.944 -8.957 751.833 Q -8.785 751.722 -8.610 751.615 Q -8.435 751.508 -8.258 751.406 Q -8.081 751.303 -7.901 751.204 Q -7.722 751.105 -7.540 751.010 Q -7.359 750.916 -7.175 750.825 Q -6.991 750.735 -6.805 750.648 Q -6.620 750.562 -6.432 750.480 Q -6.245 750.398 -6.055 750.320 Q -5.866 750.243 -5.675 750.169 Q -5.484 750.096 -5.291 750.027 Q -5.099 749.958 -4.905 749.894 Q -4.711 749.829 -4.515 749.769 Q -4.320 749.709 -4.123 749.654 Q -3.926 749.598 -3.728 749.547 Q -3.530 749.497 -3.331 749.450 Q -3.132 749.404 -2.932 749.362 Q -2.732 749.320 -2.532 749.283 Q -2.331 749.245 -2.129 749.213 Q -1.927 749.180 -1.725 749.152 Q -1.523 749.124 -1.320 749.101 Q -1.117 749.077 -0.914 749.059 Q -0.710 749.040 -0.506 749.026 Q -0.303 749.012 -0.099 749.003 Q 0.105 748.993 0.309 748.989 Q 0.514 748.984 0.718 748.984 Q 0.922 748.984 1.126 748.989 Q 1.330 748.993 1.534 749.003 Q 1.738 749.012 1.942 749.026 Q 2.146 749.040 2.349 749.059 Q 2.553 749.077 2.756 749.101 Q 2.958 749.124 3.161 749.152 Q 3.363 749.180 3.565 749.213 Q 3.766 749.245 3.967 749.283 Q 4.168 749.320 4.368 749.362 Q 4.568 749.404 4.767 749.450 Q 4.966 749.497 5.164 749.548 Q 5.362 749.599 5.559 749.654 Q 5.756 749.710 5.951 749.770 Q 6.146 749.830 6.341 749.894 Q 6.535 749.958 6.727 750.027 Q 6.920 750.096 7.111 750.170 Q 7.302 750.243 7.491 750.321 Q 7.680 750.398 7.868 750.480 Q 8.055 750.562 8.241 750.648 Q 8.427 750.735 8.611 750.825 Q 8.794 750.916 8.976 751.010 Q 9.157 751.105 9.337 751.204 Q 9.516 751.303 9.694 751.406 Q 9.871 751.509 10.046 751.615 Q 10.221 751.722 10.393 751.833 Q 10.566 751.944 10.736 752.059 Q 10.906 752.174 11.073 752.293 Q 11.240 752.411 11.405 752.534 Q 11.570 752.657 11.731 752.783 Q 11.893 752.909 12.052 753.039 Q 12.211 753.169 12.368 753.303 Q 12.524 753.436 12.677 753.573 Q 12.830 753.710 12.980 753.851 Q 13.130 753.992 13.277 754.136 Q 13.423 754.280 13.567 754.427 Q 13.711 754.574 13.851 754.725 Q 13.991 754.875 14.128 755.029 Q 14.265 755.183 14.398 755.340 Q 14.532 755.497 14.662 755.657 Q 14.791 755.816 14.918 755.979 Q 15.044 756.142 15.167 756.308 Q 15.289 756.473 15.408 756.642 Q 15.527 756.810 15.642 756.981 Q 15.757 757.153 15.869 757.326 Q 15.980 757.500 16.087 757.676 Q 16.195 757.852 16.298 758.031 Q 16.402 758.210 16.501 758.391 Q 16.600 758.572 16.696 758.755 Q 16.791 758.938 16.882 759.123 Q 16.974 759.309 17.061 759.496 Q 17.148 759.683 17.231 759.873 Q 17.314 760.062 17.392 760.253 Q 17.471 760.444 17.545 760.637 Q 17.620 760.830 17.690 761.025 Q 17.760 761.220 17.826 761.416 Q 17.891 761.612 17.953 761.809 Q 18.014 762.007 18.071 762.206 Q 18.128 762.405 18.180 762.605 Q 18.233 762.805 18.281 763.007 Q 18.329 763.208 18.372 763.411 Q 18.416 763.613 18.455 763.816 Q 18.494 764.020 18.528 764.224 Q 18.563 764.428 18.593 764.633 Q 18.623 764.838 18.648 765.044 Q 18.673 765.249 18.694 765.455 Q 18.715 765.662 18.731 765.868 Q 18.747 766.075 18.758 766.281 Q 18.770 766.488 18.777 766.695 Q 18.784 766.902 18.786 767.109 Z"></path>
    <path id="STROKE_2520af98-b9a0-461a-96dd-6b8f5cf6053a" opacity="1.000" fill="none" stroke="#171612" stroke-width="2.919" stroke-opacity="1.000" stroke-linecap="round" stroke-linejoin="round" d="M 0.710 745.476 L 0.710 746.695 L 0.710 746.974 L 0.710 747.252 L 0.710 747.577 L 0.710 747.950 L 0.710 748.360 L 0.710 748.807 L 0.710 749.339 L 0.710 749.822 L 0.710 750.328 L 0.710 750.860 L 0.710 751.414 L 0.710 751.994 L 0.710 752.644 L 0.710 753.187 L 0.710 753.744 L 0.710 754.298 L 0.710 754.853 L 0.710 755.396 L 0.710 756.023 L 0.710 756.518 L 0.710 757.013 L 0.710 757.522 L 0.710 758.028 L 0.710 758.534 L 0.710 759.125 L 0.710 759.609 L 0.710 760.103 L 0.710 760.610 L 0.710 761.130 L 0.710 761.647 L 0.710 762.238 L 0.710 762.733 L 0.710 763.265 L 0.710 763.796 L 0.710 764.339 L 0.710 764.882 L 0.710 765.498 L 0.710 765.993 L 0.710 766.488 L 0.710 766.983 L 0.710 767.489 L 0.710 767.984 L 0.710 768.550 L 0.710 769.010 L 0.710 769.480 L 0.710 769.975 L 0.710 770.481 L 0.710 770.987 L 0.710 771.581 L 0.710 772.075 L 0.710 772.593 L 0.710 773.099 L 0.710 773.619 L 0.710 774.126 L 0.710 774.680 L 0.710 775.115 L 0.710 775.562 L 0.710 776.020 L 0.710 776.467 L 0.710 776.914 L 0.710 777.409 L 0.710 777.782 L 0.710 778.144 L 0.710 778.506 L 0.710 778.856 L 0.710 779.207 L 0.710 779.592 L 0.710 779.894 L 0.710 780.219 L 0.710 780.533 L 0.710 780.872 L 0.710 781.198 L 0.710 781.585 L 0.710 781.910 L 0.710 782.247 L 0.710 782.597 L 0.710 782.971 L 0.710 783.346 L 0.710 783.768 L 0.710 784.105 L 0.710 784.444 L 0.710 784.769 L 0.710 785.060 L 0.710 785.337 L 0.710 785.626 L 0.710 785.832 L 0.710 786.036 L 0.710 786.231 L 0.710 786.434 L 0.710 786.652 L 0.710 786.906 L 0.710 787.110 L 0.710 787.339 L 0.710 787.582 L 0.710 787.823 L 0.710 788.077 L 0.710 788.354 L 0.710 788.583 L 0.710 788.812 L 0.710 789.030 L 0.710 789.234 L 0.710 789.440 L 0.710 789.644 L 0.710 789.777 L 0.710 789.898 L 0.710 790.006 L 0.710 790.175 L 0.710 790.333 L 0.710 790.441 L 0.710 790.585 L 0.710 790.695 L 0.710 790.803 L 0.710 790.611 "></path>
  </g>
</svg>