<?xml version="1.0" encoding="UTF-8" standalone="yes"?>
<svg xmlns="http://www.w3.org/2000/svg" xmlns:xlink="http://www.w3.org/1999/xlink" width="37.381pt" height="42.274pt" version="1.1" viewBox="-19.208 746.127 37.381 42.274">
  <!--
	Exported with Concepts: Smarter Sketching
	Version: 2463 on iOS 17.1
	https://concepts.app/
	-->
  <title>0A1A025D-9134-4C11-842D-4FEEA5DE3199</title>
  <desc>Drawing exported from Concepts: Smarter Sketching</desc>
  <defs></defs>
  <rect x="-19.208" y="746.127" width="37.381" height="42.274" stroke="none" fill="white"></rect>
  <g id="Pen" opacity="1.000">
    <path id="STROKE_de65ba83-42cd-4180-945b-7981bfa02a60" opacity="1.000" fill="none" stroke="#171612" stroke-width="2.919" stroke-opacity="1.000" stroke-linecap="round" stroke-linejoin="round" d="M 15.803 748.899 Q 15.741 748.890 15.445 748.837 Q 15.149 748.784 14.306 748.707 Q 13.463 748.630 12.165 748.563 Q 10.867 748.497 10.219 748.500 Q 9.571 748.504 9.040 748.528 Q 8.508 748.552 6.657 748.781 Q 4.806 749.011 3.084 749.379 Q 1.361 749.747 0.254 750.073 Q -0.854 750.399 -1.922 750.775 Q -2.989 751.150 -3.561 751.388 Q -4.132 751.625 -4.674 751.876 Q -5.216 752.127 -6.628 752.951 Q -8.040 753.775 -8.774 754.318 Q -9.507 754.861 -10.010 755.299 Q -10.513 755.737 -11.064 756.301 Q -11.615 756.865 -11.975 757.284 Q -12.336 757.703 -12.873 758.436 Q -13.409 759.169 -13.854 759.921 Q -14.299 760.674 -14.789 761.736 Q -15.278 762.798 -15.663 764.003 Q -16.047 765.208 -16.290 766.663 Q -16.533 768.117 -16.565 769.213 Q -16.596 770.309 -16.457 771.486 Q -16.319 772.664 -16.117 773.454 Q -15.916 774.245 -15.647 774.940 Q -15.378 775.635 -14.921 776.470 Q -14.463 777.306 -13.772 778.201 Q -13.080 779.096 -12.638 779.545 Q -12.195 779.994 -11.524 780.539 Q -10.853 781.083 -10.417 781.384 Q -9.982 781.685 -9.398 782.026 Q -8.814 782.368 -8.351 782.597 Q -7.887 782.825 -6.722 783.277 Q -5.557 783.728 -4.617 784.006 Q -3.677 784.284 -3.155 784.415 Q -2.633 784.545 -1.863 784.691 Q -1.093 784.837 -0.664 784.902 Q -0.236 784.967 0.623 785.085 Q 1.483 785.203 2.312 785.281 Q 3.140 785.360 3.686 785.397 Q 4.232 785.435 4.514 785.455 Q 4.797 785.476 5.569 785.522 Q 6.341 785.568 6.967 785.596 Q 7.593 785.624 8.170 785.652 Q 8.747 785.679 9.776 785.723 Q 10.806 785.766 11.724 785.821 Q 12.641 785.875 14.860 786.031 "></path>
    <path id="STROKE_b4dec723-fdfa-4e47-93c6-f3ed87502afb" opacity="1.000" fill="none" stroke="#171612" stroke-width="2.919" stroke-opacity="1.000" stroke-linecap="round" stroke-linejoin="round" d="M -16.843 767.784 L -16.649 767.810 Q -16.335 767.863 -12.556 768.034 Q -8.777 768.205 -8.023 768.195 Q -7.270 768.184 -5.742 768.141 Q -4.214 768.099 -3.331 768.074 Q -2.448 768.049 0.431 768.005 Q 3.310 767.961 4.328 767.957 Q 5.347 767.954 6.283 767.953 Q 7.219 767.951 7.857 767.955 Q 8.495 767.959 8.970 767.960 Q 9.444 767.962 10.330 767.964 Q 11.216 767.967 11.843 767.973 Q 12.470 767.979 12.948 767.986 Q 13.425 767.993 13.743 768.003 Q 14.061 768.013 14.472 768.021 Q 14.882 768.029 15.671 768.050 "></path>
  </g>
</svg>