<?xml version="1.0" encoding="UTF-8" standalone="yes"?>
<svg xmlns="http://www.w3.org/2000/svg" xmlns:xlink="http://www.w3.org/1999/xlink" width="41.639pt" height="44.492pt" version="1.1" viewBox="-21.116 746.587 41.639 44.492">
  <!--
	Exported with Concepts: Smarter Sketching
	Version: 2463 on iOS 17.1
	https://concepts.app/
	-->
  <title>0A1A025D-9134-4C11-842D-4FEEA5DE3199</title>
  <desc>Drawing exported from Concepts: Smarter Sketching</desc>
  <defs></defs>
  <rect x="-21.116" y="746.587" width="41.639" height="44.492" stroke="none" fill="white"></rect>
  <g id="Pen" opacity="1.000">
    <path id="STROKE_b1729490-673f-4a09-add2-a64fd76ba3d1" opacity="1.000" fill="none" stroke="#171612" stroke-width="2.919" stroke-opacity="1.000" stroke-linecap="round" stroke-linejoin="round" d="M -17.667 748.972 Q -17.514 748.993 -15.145 749.222 Q -12.777 749.450 -10.868 749.650 Q -8.960 749.849 -8.076 749.952 Q -7.193 750.055 -6.087 750.204 Q -4.982 750.353 -3.724 750.562 Q -2.467 750.772 -1.633 750.939 Q -0.798 751.106 -0.331 751.214 Q 0.137 751.321 1.363 751.674 Q 2.588 752.027 3.766 752.495 Q 4.944 752.963 5.614 753.298 Q 6.284 753.634 6.684 753.864 Q 7.083 754.093 7.808 754.578 Q 8.532 755.063 9.631 755.967 Q 10.731 756.871 11.342 757.475 Q 11.954 758.080 12.666 758.878 Q 13.377 759.677 13.821 760.242 Q 14.264 760.807 14.625 761.330 Q 14.987 761.852 15.577 762.853 Q 16.166 763.854 16.439 764.398 Q 16.712 764.943 17.182 766.340 Q 17.651 767.737 17.838 768.708 Q 18.025 769.678 18.091 770.821 Q 18.157 771.965 18.107 772.779 Q 18.058 773.594 17.897 774.441 Q 17.736 775.287 17.545 775.896 Q 17.354 776.506 17.046 777.210 Q 16.737 777.915 16.532 778.282 Q 16.327 778.650 16.091 779.008 Q 15.855 779.367 15.003 780.316 Q 14.150 781.266 13.590 781.737 Q 13.031 782.207 12.433 782.610 Q 11.836 783.013 10.644 783.632 Q 9.451 784.250 8.258 784.714 Q 7.066 785.177 6.144 785.460 Q 5.223 785.743 3.914 786.084 Q 2.605 786.426 1.838 786.594 Q 1.071 786.762 0.695 786.834 Q 0.318 786.906 -0.629 787.071 Q -1.575 787.236 -2.251 787.345 Q -2.927 787.454 -4.381 787.644 Q -5.836 787.834 -7.787 788.040 Q -9.738 788.246 -10.685 788.344 Q -11.632 788.441 -11.973 788.473 Q -12.315 788.506 -12.604 788.538 Q -12.892 788.571 -13.070 788.595 Q -13.248 788.618 -13.896 788.698 "></path>
    <path id="STROKE_b975ad0e-ba55-4cff-af07-3d6b7abaac38" opacity="1.000" fill="none" stroke="#171612" stroke-width="2.919" stroke-opacity="1.000" stroke-linecap="round" stroke-linejoin="round" d="M -18.765 768.220 Q -18.708 768.221 -16.899 768.241 Q -15.089 768.261 -13.398 768.278 Q -11.707 768.295 -10.767 768.297 Q -9.828 768.298 -9.300 768.288 Q -8.773 768.278 -7.395 768.247 Q -6.017 768.215 -5.265 768.192 Q -4.513 768.169 -3.611 768.125 Q -2.708 768.081 -2.136 768.053 Q -1.565 768.025 -0.376 767.976 Q 0.814 767.926 2.072 767.866 Q 3.330 767.805 4.732 767.758 Q 6.134 767.711 7.049 767.687 Q 7.964 767.663 8.349 767.651 Q 8.733 767.639 9.279 767.624 Q 9.825 767.609 10.930 767.575 Q 12.035 767.541 12.597 767.524 Q 13.158 767.507 13.830 767.476 Q 14.502 767.444 14.863 767.429 Q 15.225 767.415 15.467 767.411 "></path>
  </g>
</svg>