<?xml version="1.0" encoding="UTF-8" standalone="yes"?>
<svg xmlns="http://www.w3.org/2000/svg" xmlns:xlink="http://www.w3.org/1999/xlink" width="24.887pt" height="48.105pt" version="1.1" viewBox="-13.067 742.333 24.887 48.105">
  <!--
	Exported with Concepts: Smarter Sketching
	Version: 2463 on iOS 17.1
	https://concepts.app/
	-->
  <title>0A1A025D-9134-4C11-842D-4FEEA5DE3199</title>
  <desc>Drawing exported from Concepts: Smarter Sketching</desc>
  <defs></defs>
  <rect x="-13.067" y="742.333" width="24.887" height="48.105" stroke="none" fill="white"></rect>
  <g id="Pen" opacity="1.000">
    <path id="STROKE_9f8b2597-31de-494e-9106-dd5b4d0d93a5" opacity="1.000" fill="none" stroke="#171612" stroke-width="2.919" stroke-opacity="1.000" stroke-linecap="round" stroke-linejoin="round" d="M 7.802 751.939 Q 7.409 751.716 7.164 751.574 Q 6.919 751.432 6.662 751.291 Q 6.406 751.150 5.742 750.855 Q 5.078 750.559 4.220 750.298 Q 3.362 750.038 2.606 749.926 Q 1.850 749.815 1.142 749.812 Q 0.433 749.810 -0.545 749.973 Q -1.523 750.135 -2.262 750.383 Q -3.001 750.631 -3.825 751.047 Q -4.648 751.463 -5.861 752.432 Q -7.074 753.402 -7.625 754.098 Q -8.175 754.793 -8.351 755.097 Q -8.528 755.400 -8.639 755.631 Q -8.750 755.863 -8.856 756.144 Q -8.963 756.426 -9.081 756.948 Q -9.200 757.470 -9.204 758.089 Q -9.209 758.708 -9.135 759.086 Q -9.062 759.464 -8.892 759.884 Q -8.722 760.304 -8.424 760.752 Q -8.126 761.199 -7.630 761.678 Q -7.133 762.157 -6.472 762.582 Q -5.811 763.007 -5.083 763.343 Q -4.355 763.679 -3.575 763.962 Q -2.795 764.245 -1.088 764.775 Q 0.620 765.304 1.535 765.613 Q 2.449 765.923 2.892 766.099 Q 3.334 766.275 3.947 766.560 Q 4.561 766.845 5.185 767.217 Q 5.809 767.590 6.404 768.065 Q 6.998 768.541 7.376 768.941 Q 7.754 769.341 8.124 769.880 Q 8.493 770.419 8.678 770.788 Q 8.863 771.157 9.039 771.674 Q 9.214 772.191 9.302 772.674 Q 9.390 773.157 9.390 773.901 Q 9.389 774.645 9.253 775.261 Q 9.116 775.877 8.867 776.435 Q 8.618 776.993 8.290 777.463 Q 7.962 777.932 7.621 778.280 Q 7.280 778.627 6.850 778.957 Q 6.420 779.287 5.295 779.822 Q 4.169 780.358 2.683 780.692 Q 1.198 781.026 0.155 781.103 Q -0.887 781.180 -1.952 781.169 Q -3.017 781.158 -3.708 781.107 Q -4.399 781.055 -4.882 780.995 Q -5.364 780.934 -6.194 780.766 Q -7.023 780.598 -7.598 780.460 Q -8.173 780.322 -8.644 780.206 Q -9.114 780.090 -9.349 780.024 Q -9.583 779.959 -9.748 779.911 Q -9.914 779.863 -10.642 779.635 "></path>
    <path id="STROKE_5ae05ca3-ead1-4579-979c-72351f68fbfa" opacity="1.000" fill="none" stroke="#171612" stroke-width="2.919" stroke-opacity="1.000" stroke-linecap="round" stroke-linejoin="round" d="M -1.276 744.722 Q -1.280 744.817 -1.279 745.013 Q -1.277 745.209 -1.256 745.763 Q -1.235 746.318 -1.181 747.982 Q -1.128 749.647 -1.050 751.382 Q -0.973 753.117 -0.819 755.874 Q -0.666 758.630 -0.504 761.738 Q -0.342 764.846 -0.256 766.395 Q -0.170 767.943 -0.050 769.933 Q 0.069 771.922 0.146 773.073 Q 0.223 774.224 0.268 774.848 Q 0.313 775.472 0.384 776.293 Q 0.455 777.114 0.648 778.894 Q 0.841 780.674 0.958 781.609 Q 1.074 782.544 1.218 783.511 Q 1.361 784.478 1.515 785.414 Q 1.669 786.350 1.760 786.870 Q 1.851 787.390 1.951 788.010 "></path>
  </g>
</svg>