<?xml version="1.0" encoding="UTF-8" standalone="yes"?>
<svg xmlns="http://www.w3.org/2000/svg" xmlns:xlink="http://www.w3.org/1999/xlink" width="44.725pt" height="42.654pt" version="1.1" viewBox="-22.752 748.424 44.725 42.654">
  <!--
	Exported with Concepts: Smarter Sketching
	Version: 2463 on iOS 17.1
	https://concepts.app/
	-->
  <title>0A1A025D-9134-4C11-842D-4FEEA5DE3199</title>
  <desc>Drawing exported from Concepts: Smarter Sketching</desc>
  <defs></defs>
  <rect x="-22.752" y="748.424" width="44.725" height="42.654" stroke="none" fill="white"></rect>
  <g id="Pen" opacity="1.000">
    <path id="STROKE_b2613dae-d617-4dff-8e67-f2e84b198e75" opacity="1.000" fill="none" stroke="#171612" stroke-width="3.919" stroke-opacity="1.000" stroke-linecap="round" stroke-linejoin="round" d="M -0.327 788.998 L 17.446 769.747 Q 18.995 767.025 19.130 766.653 Q 19.264 766.281 19.571 764.718 Q 19.877 763.154 19.893 762.696 Q 19.910 762.239 19.654 760.443 Q 19.398 758.648 18.683 757.077 Q 17.968 755.505 16.875 754.245 Q 15.782 752.985 14.390 752.124 Q 12.998 751.263 11.387 750.888 Q 9.776 750.514 9.476 750.505 Q 9.176 750.496 7.608 750.747 Q 6.041 750.999 4.655 751.708 Q 3.268 752.418 2.135 753.516 Q 1.001 754.614 0.308 755.763 L -0.385 756.913 Q -2.126 754.206 -3.310 753.169 Q -4.493 752.132 -5.916 751.490 Q -7.340 750.848 -8.643 750.672 Q -9.946 750.496 -11.587 750.776 Q -13.229 751.056 -14.665 751.837 Q -16.101 752.619 -17.253 753.815 Q -18.405 755.011 -19.192 756.534 Q -19.979 758.057 -20.321 759.820 Q -20.664 761.582 -20.672 761.910 Q -20.680 762.239 -20.464 763.906 Q -20.248 765.574 -19.645 767.041 Q -19.042 768.509 -18.629 769.128 L -18.217 769.747 L -0.327 788.998 Z"></path>
  </g>
</svg>