<?xml version="1.0" encoding="UTF-8" standalone="yes"?>
<svg xmlns="http://www.w3.org/2000/svg" xmlns:xlink="http://www.w3.org/1999/xlink" width="46.096pt" height="45.547pt" version="1.1" viewBox="-23.536 745.524 46.096 45.547">
  <!--
	Exported with Concepts: Smarter Sketching
	Version: 2463 on iOS 17.1
	https://concepts.app/
	-->
  <title>0A1A025D-9134-4C11-842D-4FEEA5DE3199</title>
  <desc>Drawing exported from Concepts: Smarter Sketching</desc>
  <defs></defs>
  <rect x="-23.536" y="745.524" width="46.096" height="45.547" stroke="none" fill="white"></rect>
  <g id="Pen" opacity="1.000">
    <path id="STROKE_4d8d63b3-a3e7-4c2c-ad3e-c39d378b5d1f" opacity="1.000" fill="none" stroke="#171612" stroke-width="2.919" stroke-opacity="1.000" stroke-linecap="round" stroke-linejoin="round" d="M -20.426 748.067 L -19.977 748.067 L -19.823 748.067 L -19.651 748.067 L -19.460 748.067 L -19.229 748.067 L -18.962 748.067 L -18.649 748.067 L -18.323 748.067 L -17.973 748.067 L -17.587 748.067 L -17.189 748.067 L -16.763 748.067 L -16.269 748.067 L -15.834 748.067 L -15.412 748.067 L -14.986 748.067 L -14.551 748.067 L -14.116 748.067 L -13.622 748.067 L -13.210 748.067 L -12.801 748.067 L -12.389 748.067 L -11.954 748.067 L -11.518 748.067 L -11.011 748.067 L -10.589 748.067 L -10.140 748.067 L -9.669 748.067 L -9.184 748.067 L -8.703 748.067 L -8.133 748.067 L -7.675 748.067 L -7.203 748.067 L -6.745 748.067 L -6.260 748.067 L -5.789 748.067 L -5.232 748.067 L -4.787 748.067 L -4.338 748.067 L -3.880 748.067 L -3.419 748.067 L -2.960 748.067 L -2.440 748.067 L -2.031 748.067 L -1.596 748.067 L -1.160 748.067 L -0.725 748.067 L -0.290 748.067 L 0.217 748.067 L 0.616 748.067 L 1.015 748.067 L 1.441 748.067 L 1.862 748.067 L 2.311 748.067 L 2.805 748.067 L 3.217 748.067 L 3.639 748.067 L 4.088 748.067 L 4.523 748.067 L 4.958 748.067 L 5.439 748.067 L 5.828 748.067 L 6.237 748.067 L 6.649 748.067 L 7.048 748.067 L 7.447 748.067 L 7.882 748.067 L 8.245 748.067 L 8.584 748.067 L 8.911 748.067 L 9.224 748.067 L 9.527 748.067 L 9.863 748.067 L 10.144 748.067 L 10.407 748.067 L 10.661 748.067 L 10.915 748.067 L 11.169 748.067 L 11.459 748.067 L 11.690 748.067 L 11.920 748.067 L 12.161 748.067 L 12.392 748.067 L 12.619 748.067 L 12.873 748.067 L 13.081 748.067 L 13.285 748.067 L 13.490 748.067 L 13.707 748.067 L 13.915 748.067 L 14.169 748.067 L 14.360 748.067 L 14.554 748.067 L 14.722 748.067 L 14.894 748.067 L 15.049 748.067 L 15.230 748.067 L 15.352 748.067 L 15.461 748.067 L 15.570 748.067 L 15.764 748.067 L 15.946 748.067 L 16.100 748.067 L 16.246 748.067 L 16.381 748.067 L 16.526 748.067 L 16.658 748.067 L 16.766 748.067 L 16.862 748.067 L 16.984 748.067 L 17.106 748.067 L 17.261 748.067 L 17.383 748.067 L 17.492 748.067 L 17.610 748.067 L 17.732 748.067 L 17.841 748.067 L 17.986 748.067 L 18.095 748.067 L 18.217 748.067 L 18.326 748.067 L 18.434 748.067 L 18.543 748.067 L 18.675 748.067 L 18.797 748.067 L 18.929 748.067 L 19.038 748.067 L 19.160 748.067 L 19.278 748.067 L 19.387 748.067 "></path>
    <path id="STROKE_ad07fb9d-2c18-4682-8cfa-5251a4469c43" opacity="1.000" fill="none" stroke="#171612" stroke-width="2.919" stroke-opacity="1.000" stroke-linecap="round" stroke-linejoin="round" d="M 20.149 747.886 L 20.149 748.259 L 20.149 748.415 L 20.149 748.584 L 20.149 748.765 L 20.149 748.983 L 20.149 749.212 L 20.149 749.453 L 20.149 749.732 L 20.149 750.009 L 20.149 750.323 L 20.149 750.671 L 20.149 750.999 L 20.149 751.336 L 20.149 751.686 L 20.149 752.060 L 20.149 752.435 L 20.149 752.868 L 20.149 753.242 L 20.149 753.617 L 20.149 754.002 L 20.149 754.401 L 20.149 754.788 L 20.149 755.235 L 20.149 755.608 L 20.149 755.970 L 20.149 756.344 L 20.149 756.706 L 20.149 757.068 L 20.149 757.491 L 20.149 757.828 L 20.149 758.179 L 20.149 758.529 L 20.149 758.891 L 20.149 759.253 L 20.149 759.674 L 20.149 760.025 L 20.149 760.375 L 20.149 760.737 L 20.149 761.099 L 20.149 761.473 L 20.149 761.894 L 20.149 762.259 L 20.149 762.620 L 20.149 762.982 L 20.149 763.356 L 20.149 763.729 L 20.149 764.153 L 20.149 764.501 L 20.149 764.840 L 20.149 765.191 L 20.149 765.539 L 20.149 765.890 L 20.149 766.300 L 20.149 766.613 L 20.149 766.927 L 20.149 767.253 L 20.149 767.580 L 20.149 767.894 L 20.149 768.267 L 20.149 768.556 L 20.149 768.847 L 20.149 769.136 L 20.149 769.427 L 20.149 769.715 L 20.149 770.052 L 20.149 770.332 L 20.149 770.609 L 20.149 770.897 L 20.149 771.200 L 20.149 771.502 L 20.149 771.850 L 20.149 772.130 L 20.149 772.418 L 20.149 772.707 L 20.149 772.987 L 20.149 773.264 L 20.149 773.564 L 20.149 773.807 L 20.149 774.047 L 20.149 774.302 L 20.149 774.542 L 20.149 774.796 L 20.149 775.085 L 20.149 775.326 L 20.149 775.568 L 20.149 775.809 L 20.149 776.052 L 20.149 776.292 L 20.149 776.558 L 20.149 776.776 L 20.149 776.968 L 20.149 777.172 L 20.149 777.367 L 20.149 777.548 L 20.149 777.765 L 20.149 777.933 L 20.149 778.102 L 20.149 778.272 L 20.149 778.441 L 20.149 778.608 L 20.149 778.815 L 20.149 778.970 L 20.149 779.128 L 20.149 779.298 L 20.149 779.454 L 20.149 779.612 L 20.149 779.804 L 20.149 779.949 L 20.149 780.093 L 20.149 780.251 L 20.149 780.407 L 20.149 780.576 L 20.149 780.782 L 20.149 780.950 L 20.149 781.131 L 20.149 781.325 L 20.149 781.518 L 20.149 781.710 L 20.149 781.939 L 20.149 782.120 L 20.149 782.290 L 20.149 782.471 L 20.149 782.640 L 20.149 782.810 L 20.149 783.002 L 20.149 783.158 L 20.149 783.316 L 20.149 783.486 L 20.149 783.641 L 20.149 783.811 L 20.149 784.015 L 20.149 784.173 L 20.149 784.329 L 20.149 784.487 L 20.149 784.631 L 20.149 784.775 L 20.149 784.956 L 20.149 785.089 L 20.149 785.222 L 20.149 785.355 L 20.149 785.488 L 20.149 785.621 L 20.149 785.776 L 20.149 785.898 L 20.149 786.031 L 20.149 786.152 L 20.149 786.285 L 20.149 786.418 L 20.149 786.551 L 20.149 786.695 L 20.149 786.828 L 20.149 786.947 L 20.149 787.068 L 20.149 787.201 L 20.149 787.323 L 20.149 787.479 L 20.149 787.589 L 20.149 787.708 L 20.149 787.818 L 20.149 787.925 L 20.149 788.131 L 20.149 788.251 L 20.149 788.372 L 20.149 788.493 L 20.149 788.601 L 20.149 788.709 "></path>
    <path id="STROKE_6fbe69ba-a5eb-4c07-9f3e-a53788199306" opacity="1.000" fill="none" stroke="#171612" stroke-width="2.919" stroke-opacity="1.000" stroke-linecap="round" stroke-linejoin="round" d="M 19.486 788.542 L 19.351 788.542 L 19.242 788.542 L 19.123 788.542 L 19.001 788.542 L 18.893 788.542 L 18.748 788.542 L 18.589 788.542 L 18.458 788.542 L 18.299 788.542 L 18.118 788.542 L 18.009 788.542 L 17.891 788.542 L 17.769 788.542 L 17.637 788.542 L 17.492 788.542 L 17.333 788.542 L 17.175 788.542 L 16.984 788.542 L 16.803 788.542 L 16.598 788.542 L 16.381 788.542 L 16.150 788.542 L 15.896 788.542 L 15.619 788.542 L 15.352 788.542 L 15.085 788.542 L 14.821 788.542 L 14.541 788.542 L 14.251 788.542 L 13.925 788.542 L 13.661 788.542 L 13.381 788.542 L 13.117 788.542 L 12.850 788.542 L 12.596 788.542 L 12.293 788.542 L 12.052 788.542 L 11.798 788.542 L 11.545 788.542 L 11.268 788.542 L 10.978 788.542 L 10.625 788.542 L 10.325 788.542 L 10.022 788.542 L 9.695 788.542 L 9.356 788.542 L 9.019 788.542 L 8.620 788.542 L 8.294 788.542 L 7.941 788.542 L 7.592 788.542 L 7.243 788.542 L 6.890 788.542 L 6.481 788.542 L 6.165 788.542 L 5.828 788.542 L 5.502 788.542 L 5.176 788.542 L 4.849 788.542 L 4.473 788.542 L 4.170 788.542 L 3.857 788.542 L 3.531 788.542 L 3.204 788.542 L 2.865 788.542 L 2.492 788.542 L 2.176 788.542 L 1.862 788.542 L 1.536 788.542 L 1.223 788.542 L 0.897 788.542 L 0.534 788.542 L 0.244 788.542 L -0.073 788.542 L -0.386 788.542 L -0.699 788.542 L -1.025 788.542 L -1.388 788.542 L -1.678 788.542 L -1.981 788.542 L -2.285 788.542 L -2.598 788.542 L -2.901 788.542 L -3.251 788.542 L -3.541 788.542 L -3.818 788.542 L -4.121 788.542 L -4.434 788.542 L -4.724 788.542 L -5.064 788.542 L -5.331 788.542 L -5.585 788.542 L -5.848 788.542 L -6.115 788.542 L -6.382 788.542 L -6.682 788.542 L -6.913 788.542 L -7.154 788.542 L -7.384 788.542 L -7.615 788.542 L -7.856 788.542 L -8.146 788.542 L -8.377 788.542 L -8.617 788.542 L -8.848 788.542 L -9.089 788.542 L -9.320 788.542 L -9.583 788.542 L -9.801 788.542 L -10.009 788.542 L -10.226 788.542 L -10.431 788.542 L -10.625 788.542 L -10.852 788.542 L -11.024 788.542 L -11.205 788.542 L -11.373 788.542 L -11.541 788.542 L -11.713 788.542 L -11.917 788.542 L -12.085 788.542 L -12.257 788.542 L -12.412 788.542 L -12.583 788.542 L -12.738 788.542 L -12.910 788.542 L -13.055 788.542 L -13.186 788.542 L -13.332 788.542 L -13.463 788.542 L -13.599 788.542 L -13.767 788.542 L -13.889 788.542 L -14.021 788.542 L -14.166 788.542 L -14.297 788.542 L -14.442 788.542 L -14.601 788.542 L -14.733 788.542 L -14.855 788.542 L -14.977 788.542 L -15.095 788.542 L -15.217 788.542 L -15.349 788.542 L -15.458 788.542 L -15.567 788.542 L -15.666 788.542 L -15.774 788.542 L -15.883 788.542 L -16.028 788.542 L -16.137 788.542 L -16.256 788.542 L -16.378 788.542 L -16.500 788.542 L -16.631 788.542 L -16.776 788.542 L -16.898 788.542 L -17.030 788.542 L -17.162 788.542 L -17.284 788.542 L -17.416 788.542 L -17.574 788.542 L -17.696 788.542 L -17.828 788.542 L -17.960 788.542 L -18.082 788.542 L -18.214 788.542 L -18.359 788.542 L -18.481 788.542 L -18.590 788.542 L -18.708 788.542 L -18.817 788.542 L -18.926 788.542 L -19.061 788.542 L -19.252 788.542 L -19.447 788.542 L -19.664 788.542 L -19.832 788.542 L -20.004 788.542 L -20.208 788.542 L -20.366 788.542 L -20.521 788.542 L -20.680 788.542 L -20.802 788.542 L -20.910 788.542 L -21.042 788.542 L -21.174 788.542 "></path>
  </g>
</svg>