<?xml version="1.0" encoding="UTF-8" standalone="yes"?>
<svg xmlns="http://www.w3.org/2000/svg" xmlns:xlink="http://www.w3.org/1999/xlink" width="44.610pt" height="44.790pt" version="1.1" viewBox="-22.643 745.076 44.610 44.790">
  <!--
	Exported with Concepts: Smarter Sketching
	Version: 2463 on iOS 17.1
	https://concepts.app/
	-->
  <title>0A1A025D-9134-4C11-842D-4FEEA5DE3199</title>
  <desc>Drawing exported from Concepts: Smarter Sketching</desc>
  <defs></defs>
  <rect x="-22.643" y="745.076" width="44.610" height="44.790" stroke="none" fill="white"></rect>
  <g id="Pen" opacity="1.000">
    <path id="STROKE_5e6366fa-3610-4c86-be96-7795e7c30b97" opacity="1.000" fill="none" stroke="#171612" stroke-width="2.919" stroke-opacity="1.000" stroke-linecap="round" stroke-linejoin="round" d="M -20.244 747.897 L -20.244 748.717 L -20.244 748.887 L -20.244 749.068 L -20.244 749.272 L -20.244 749.515 L -20.244 749.803 L -20.244 750.080 L -20.244 750.383 L -20.244 750.722 L -20.244 751.084 L -20.244 751.469 L -20.244 751.915 L -20.244 752.314 L -20.244 752.713 L -20.244 753.123 L -20.244 753.521 L -20.244 753.906 L -20.244 754.341 L -20.244 754.692 L -20.244 755.029 L -20.244 755.368 L -20.244 755.716 L -20.244 756.055 L -20.244 756.454 L -20.244 756.779 L -20.244 757.116 L -20.244 757.455 L -20.244 757.805 L -20.244 758.167 L -20.244 758.577 L -20.244 758.914 L -20.244 759.253 L -20.244 759.603 L -20.244 759.952 L -20.244 760.302 L -20.244 760.712 L -20.244 761.051 L -20.244 761.399 L -20.244 761.739 L -20.244 762.100 L -20.244 762.462 L -20.244 762.898 L -20.244 763.260 L -20.244 763.633 L -20.244 764.020 L -20.244 764.430 L -20.244 764.840 L -20.244 765.310 L -20.244 765.697 L -20.244 766.059 L -20.244 766.421 L -20.244 766.772 L -20.244 767.097 L -20.244 767.470 L -20.244 767.761 L -20.244 768.061 L -20.244 768.364 L -20.244 768.677 L -20.244 769.003 L -20.244 769.376 L -20.244 769.679 L -20.244 769.992 L -20.244 770.306 L -20.244 770.632 L -20.244 770.971 L -20.244 771.369 L -20.244 771.695 L -20.244 772.045 L -20.244 772.407 L -20.244 772.780 L -20.244 773.154 L -20.244 773.564 L -20.244 773.891 L -20.244 774.205 L -20.244 774.505 L -20.244 774.796 L -20.244 775.074 L -20.244 775.387 L -20.244 775.628 L -20.244 775.882 L -20.244 776.134 L -20.244 776.400 L -20.244 776.666 L -20.244 776.980 L -20.244 777.245 L -20.244 777.523 L -20.244 777.800 L -20.244 778.091 L -20.244 778.393 L -20.244 778.741 L -20.244 779.018 L -20.244 779.298 L -20.244 779.561 L -20.244 779.841 L -20.244 780.107 L -20.244 780.407 L -20.244 780.636 L -20.244 780.853 L -20.244 781.071 L -20.244 781.277 L -20.244 781.458 L -20.244 781.674 L -20.244 781.832 L -20.244 781.976 L -20.244 782.145 L -20.244 782.301 L -20.244 782.482 L -20.244 782.700 L -20.244 782.892 L -20.244 783.098 L -20.244 783.316 L -20.244 783.545 L -20.244 783.774 L -20.244 783.992 L -20.244 784.258 L -20.244 784.450 L -20.244 784.631 L -20.244 784.812 L -20.244 784.982 L -20.244 785.137 L -20.244 785.307 L -20.244 785.428 L -20.244 785.536 L -20.244 785.728 L -20.244 785.935 L -20.244 786.090 L -20.244 786.271 L -20.244 786.500 L -20.244 786.622 L -20.244 786.743 L -20.244 786.862 L -20.244 786.995 L -20.244 787.117 L -20.244 787.249 L -20.244 787.357 L -20.244 787.467 L -9.791 787.467 L -9.428 787.467 L -9.066 787.467 L -8.631 787.467 L -8.268 787.467 L -7.879 787.467 L -7.493 787.467 L -7.108 787.467 L -6.695 787.467 L -6.237 787.467 L -5.838 787.467 L -5.439 787.467 L -5.041 787.467 L -4.629 787.467 L -4.230 787.467 L -3.745 787.467 L -3.346 787.467 L -2.960 787.467 L -2.562 787.467 L -2.163 787.467 L -1.764 787.467 L -1.306 787.467 L -0.953 787.467 L -0.603 787.467 L -0.254 787.467 L 0.109 787.467 L 0.461 787.467 L 0.860 787.467 L 1.173 787.467 L 1.500 787.467 L 1.839 787.467 L 2.189 787.467 L 2.538 787.467 L 2.927 787.467 L 3.254 787.467 L 3.590 787.467 L 3.929 787.467 L 4.279 787.467 L 4.605 787.467 L 4.994 787.467 L 5.284 787.467 L 5.584 787.467 L 5.874 787.467 L 6.178 787.467 L 6.468 787.467 L 6.794 787.467 L 7.061 787.467 L 7.325 787.467 L 7.579 787.467 L 7.846 787.467 L 8.123 787.467 L 8.439 787.467 L 8.680 787.467 L 8.911 787.467 L 9.151 787.467 L 9.392 787.467 L 9.636 787.467 L 9.913 787.467 L 10.130 787.467 L 10.361 787.467 L 10.589 787.467 L 10.806 787.467 L 11.024 787.467 L 11.268 787.467 L 11.459 787.467 L 11.640 787.467 L 11.821 787.467 L 12.003 787.467 L 12.184 787.467 L 12.379 787.467 L 12.524 787.467 L 12.669 787.467 L 12.801 787.467 L 12.936 787.467 L 13.054 787.467 L 13.199 787.467 L 13.308 787.467 L 13.417 787.467 L 13.625 787.467 L 13.842 787.467 L 14.034 787.467 L 14.215 787.467 L 14.396 787.467 L 14.531 787.467 L 14.650 787.467 L 14.772 787.467 L 14.904 787.467 L 15.062 787.467 L 15.171 787.467 L 15.293 787.467 L 15.425 787.467 L 15.557 787.467 L 15.702 787.467 L 15.873 787.467 L 16.028 787.467 L 16.186 787.467 L 16.344 787.467 L 16.476 787.467 L 16.598 787.467 L 16.730 787.467 L 16.852 787.467 L 16.961 787.467 L 17.093 787.467 L 17.211 787.467 L 17.333 787.467 L 17.465 787.467 L 17.574 787.467 L 17.683 787.467 L 17.782 787.467 L 17.900 787.467 L 18.022 787.467 L 18.131 787.467 L 18.253 787.467 L 18.372 787.467 L 18.517 787.467 L 18.652 787.467 L 18.807 787.467 L 18.942 787.467 L 19.074 787.467 L 19.206 787.467 L 19.315 787.467 L 19.423 787.467 L 19.522 787.467 L 19.618 787.467 "></path>
    <path id="STROKE_96feb0a1-b6a4-4eae-9225-836c4ef10166" opacity="1.000" fill="none" stroke="#171612" stroke-width="2.919" stroke-opacity="1.000" stroke-linecap="round" stroke-linejoin="round" d="M 19.292 787.249 L 19.292 786.574 L 19.292 786.404 L 19.292 786.212 L 19.292 785.994 L 19.292 785.754 L 19.292 785.511 L 19.292 785.259 L 19.292 784.993 L 19.292 784.704 L 19.292 784.425 L 19.292 784.088 L 19.292 783.797 L 19.292 783.508 L 19.292 783.195 L 19.292 782.881 L 19.292 782.567 L 19.292 782.194 L 19.292 781.880 L 19.292 781.566 L 19.292 781.252 L 19.292 780.950 L 19.292 780.636 L 19.292 780.288 L 19.292 780.008 L 19.292 779.731 L 19.292 779.454 L 19.292 779.188 L 19.292 778.936 L 19.292 778.645 L 19.292 778.416 L 19.292 778.198 L 19.292 777.981 L 19.292 777.752 L 19.292 777.534 L 19.292 777.271 L 19.292 777.053 L 19.292 776.835 L 19.292 776.606 L 19.292 776.389 L 19.292 776.159 L 19.292 775.894 L 19.292 775.676 L 19.292 775.458 L 19.292 775.243 L 19.292 775.014 L 19.292 774.783 L 19.292 774.519 L 19.292 774.288 L 19.292 774.073 L 19.292 773.830 L 19.292 773.589 L 19.292 773.360 L 19.292 773.083 L 19.292 772.865 L 19.292 772.636 L 19.292 772.407 L 19.292 772.164 L 19.292 771.912 L 19.292 771.610 L 19.292 771.369 L 19.292 771.104 L 19.292 770.849 L 19.292 770.572 L 19.292 770.295 L 19.292 770.018 L 19.292 769.690 L 19.292 769.427 L 19.292 769.161 L 19.292 768.884 L 19.292 768.618 L 19.292 768.352 L 19.292 768.038 L 19.292 767.796 L 19.292 767.555 L 19.292 767.301 L 19.292 767.060 L 19.292 766.820 L 19.292 766.529 L 19.292 766.300 L 19.292 766.071 L 19.292 765.841 L 19.292 765.601 L 19.292 765.358 L 19.292 765.081 L 19.292 764.840 L 19.292 764.575 L 19.292 764.309 L 19.292 764.043 L 19.292 763.766 L 19.292 763.452 L 19.292 763.186 L 19.292 762.934 L 19.292 762.680 L 19.292 762.440 L 19.292 762.208 L 19.292 761.945 L 19.292 761.739 L 19.292 761.546 L 19.292 761.351 L 19.292 761.159 L 19.292 760.955 L 19.292 760.724 L 19.292 760.520 L 19.292 760.314 L 19.292 760.110 L 19.292 759.892 L 19.292 759.686 L 19.292 759.445 L 19.292 759.253 L 19.292 759.072 L 19.292 758.902 L 19.292 758.733 L 19.292 758.566 L 19.292 758.371 L 19.292 758.227 L 19.292 758.071 L 19.292 757.924 L 19.292 757.768 L 19.292 757.624 L 19.292 757.455 L 19.292 757.333 L 19.292 757.200 L 19.292 757.081 L 19.292 756.960 L 19.292 756.852 L 19.292 756.731 L 19.292 756.550 L 19.292 756.392 L 19.292 756.211 L 19.292 756.055 L 19.292 755.897 L 19.292 755.716 L 19.292 755.572 L 19.292 755.427 L 19.292 755.258 L 19.292 755.125 L 19.292 755.006 L 19.292 754.848 L 19.292 754.715 L 19.292 754.545 L 19.292 754.330 L 19.292 754.208 L 19.292 754.099 L 19.292 753.968 L 19.292 753.835 L 19.292 753.688 L 19.292 753.521 L 19.292 753.388 L 19.292 753.242 L 19.292 753.111 L 19.292 752.978 L 19.292 752.857 L 19.292 752.724 L 19.292 752.532 L 19.292 752.362 L 19.292 752.193 L 19.292 752.037 L 19.292 751.856 L 19.292 751.746 L 19.292 751.613 L 19.292 751.505 L 19.292 751.384 L 19.292 751.265 L 19.292 751.132 L 19.292 751.010 L 19.292 750.866 L 19.292 750.745 L 19.292 750.637 L 19.292 750.541 L 19.292 750.371 L 19.292 750.238 L 19.292 750.117 L 19.292 750.009 L 19.292 749.876 L 19.292 749.732 L 19.292 749.586 L 19.292 749.418 L 19.292 749.224 L 19.292 749.056 L 19.292 748.898 L 19.292 748.754 L 19.292 748.633 L 19.292 748.488 L 19.292 748.367 L 19.292 748.222 L 19.292 748.101 L 19.292 747.945 L 19.292 747.787 L 19.292 747.657 L 19.292 747.535 L 19.292 747.425 "></path>
  </g>
</svg>