<?xml version="1.0" encoding="UTF-8" standalone="yes"?>
<svg xmlns="http://www.w3.org/2000/svg" xmlns:xlink="http://www.w3.org/1999/xlink" width="46.961pt" height="40.487pt" version="1.1" viewBox="-23.340 749.869 46.961 40.487">
  <!--
	Exported with Concepts: Smarter Sketching
	Version: 2463 on iOS 17.1
	https://concepts.app/
	-->
  <title>0A1A025D-9134-4C11-842D-4FEEA5DE3199</title>
  <desc>Drawing exported from Concepts: Smarter Sketching</desc>
  <defs></defs>
  <rect x="-23.340" y="749.869" width="46.961" height="40.487" stroke="none" fill="white"></rect>
  <g id="Pen" opacity="1.000">
    <path id="STROKE_4cc55935-6678-4ac3-9854-d91179bf7d7e" opacity="1.000" fill="none" stroke="#171612" stroke-width="2.919" stroke-opacity="1.000" stroke-linecap="round" stroke-linejoin="round" d="M -20.680 752.289 L -19.120 752.289 L -18.807 752.289 L -18.468 752.289 L -18.082 752.289 L -17.683 752.289 L -17.235 752.289 L -16.727 752.289 L -16.256 752.289 L -15.774 752.289 L -15.290 752.289 L -14.795 752.289 L -14.274 752.289 L -13.671 752.289 L -13.173 752.289 L -12.656 752.289 L -12.112 752.289 L -11.568 752.289 L -11.011 752.289 L -10.394 752.289 L -9.864 752.289 L -9.320 752.289 L -8.762 752.289 L -8.182 752.289 L -7.602 752.289 L -6.936 752.289 L -6.405 752.289 L -5.838 752.289 L -5.281 752.289 L -4.701 752.289 L -4.121 752.289 L -3.455 752.289 L -2.924 752.289 L -2.380 752.289 L -1.800 752.289 L -1.233 752.289 L -0.640 752.289 L 0.049 752.289 L 0.606 752.289 L 1.160 752.289 L 1.717 752.289 L 2.275 752.289 L 2.805 752.289 L 3.386 752.289 L 3.834 752.289 L 4.305 752.289 L 4.750 752.289 L 5.185 752.289 L 5.611 752.289 L 6.082 752.289 L 6.455 752.289 L 6.830 752.289 L 7.229 752.289 L 7.615 752.289 L 8.014 752.289 L 8.462 752.289 L 8.802 752.289 L 9.164 752.289 L 9.514 752.289 L 9.863 752.289 L 10.226 752.289 L 10.625 752.289 L 10.951 752.289 L 11.268 752.289 L 11.568 752.289 L 11.871 752.289 L 12.161 752.289 L 12.451 752.289 L 12.754 752.289 L 12.982 752.289 L 13.199 752.289 L 13.417 752.289 L 13.635 752.289 L 13.852 752.289 L 14.096 752.289 L 14.287 752.289 L 14.459 752.289 L 14.627 752.289 L 14.785 752.289 L 14.917 752.289 L 15.075 752.289 L 15.194 752.289 L 15.402 752.289 L 15.593 752.289 L 15.702 752.289 L 15.883 752.289 L 15.992 752.289 L 16.100 752.289 L 16.331 752.289 L 16.526 752.289 L 16.717 752.289 L 16.911 752.289 L 17.080 752.289 L 17.225 752.289 L 17.347 752.289 L 17.465 752.289 L 17.574 752.289 L 17.696 752.289 L 17.818 752.289 L 17.927 752.289 L 18.045 752.289 L 18.154 752.289 L 18.289 752.289 L 18.398 752.289 L 18.530 752.289 L 18.662 752.289 L 18.807 752.289 L 18.978 752.289 L 19.160 752.289 L 19.328 752.289 L 19.509 752.289 L 19.690 752.289 L 19.836 752.289 L 19.994 752.289 L 20.149 752.289 L 20.284 752.289 L 20.403 752.289 L 20.548 752.289 L 20.693 752.289 L 20.828 752.289 L 20.996 752.289 L 21.128 752.289 L 21.250 752.289 "></path>
    <path id="STROKE_16fb9b88-19fa-40bb-9376-6794d8762c3c" opacity="1.000" fill="none" stroke="#171612" stroke-width="2.919" stroke-opacity="1.000" stroke-linecap="round" stroke-linejoin="round" d="M 0.775 753.340 L 0.775 753.459 L 0.775 753.569 L 0.775 753.688 L 0.775 753.895 L 0.775 754.039 L 0.775 754.208 L 0.775 754.426 L 0.775 754.678 L 0.775 754.981 L 0.775 755.354 L 0.775 755.730 L 0.775 756.151 L 0.775 756.609 L 0.775 757.093 L 0.775 757.599 L 0.775 758.190 L 0.775 758.699 L 0.775 759.216 L 0.775 759.736 L 0.775 760.254 L 0.775 760.760 L 0.775 761.317 L 0.775 761.750 L 0.775 762.160 L 0.775 762.570 L 0.775 762.969 L 0.775 763.356 L 0.775 763.803 L 0.775 764.176 L 0.775 764.549 L 0.775 764.937 L 0.775 765.324 L 0.775 765.720 L 0.775 766.167 L 0.775 766.529 L 0.775 766.891 L 0.775 767.266 L 0.775 767.651 L 0.775 768.050 L 0.775 768.508 L 0.775 768.884 L 0.775 769.257 L 0.775 769.642 L 0.775 770.018 L 0.775 770.391 L 0.775 770.801 L 0.775 771.115 L 0.775 771.429 L 0.775 771.731 L 0.775 772.020 L 0.775 772.311 L 0.775 772.636 L 0.775 772.902 L 0.775 773.168 L 0.775 773.445 L 0.775 773.745 L 0.775 774.047 L 0.775 774.386 L 0.775 774.675 L 0.775 774.977 L 0.775 775.277 L 0.775 775.568 L 0.775 775.857 L 0.775 776.196 L 0.775 776.437 L 0.775 776.691 L 0.775 776.920 L 0.775 777.161 L 0.775 777.378 L 0.775 777.632 L 0.775 777.825 L 0.775 778.017 L 0.775 778.198 L 0.775 778.379 L 0.775 778.560 L 0.775 778.766 L 0.775 778.936 L 0.775 779.103 L 0.775 779.273 L 0.775 779.442 L 0.775 779.623 L 0.775 779.816 L 0.775 779.974 L 0.775 780.107 L 0.775 780.237 L 0.775 780.359 L 0.775 780.480 L 0.775 780.613 L 0.775 780.782 L 0.775 780.950 L 0.775 781.156 L 0.775 781.337 L 0.775 781.506 L 0.775 781.699 L 0.775 781.843 L 0.775 781.976 L 0.775 782.109 L 0.775 782.242 L 0.775 782.386 L 0.775 782.530 L 0.775 782.663 L 0.775 782.810 L 0.775 782.954 L 0.775 783.098 L 0.775 783.231 L 0.775 783.353 L 0.775 783.460 L 0.775 783.568 L 0.775 783.678 L 0.775 783.822 L 0.775 783.930 L 0.775 784.040 L 0.775 784.173 L 0.775 784.292 L 0.775 784.402 L 0.775 784.523 L 0.775 784.631 L 0.775 784.752 L 0.775 784.897 L 0.775 785.004 L 0.775 785.149 L 0.775 785.318 L 0.775 785.488 L 0.775 785.632 L 0.775 785.765 L 0.775 785.861 L 0.775 785.765 "></path>
    <path id="STROKE_edaa0f38-ad9f-4cb6-87cd-845035cfd017" opacity="1.000" fill="none" stroke="#171612" stroke-width="2.919" stroke-opacity="1.000" stroke-linecap="round" stroke-linejoin="round" d="M -20.970 787.937 L -20.861 787.937 L -20.729 787.937 L -20.558 787.937 L -20.340 787.937 L -20.076 787.937 L -19.796 787.937 L -19.460 787.937 L -19.048 787.937 L -18.576 787.937 L -18.056 787.937 L -17.452 787.937 L -16.885 787.937 L -16.269 787.937 L -15.629 787.937 L -14.963 787.937 L -14.274 787.937 L -13.500 787.937 L -12.860 787.937 L -12.230 787.937 L -11.578 787.937 L -10.938 787.937 L -10.285 787.937 L -9.560 787.937 L -8.993 787.937 L -8.413 787.937 L -7.806 787.937 L -7.203 787.937 L -6.600 787.937 L -5.921 787.937 L -5.390 787.937 L -4.846 787.937 L -4.302 787.937 L -3.745 787.937 L -3.214 787.937 L -2.670 787.937 L -2.067 787.937 L -1.596 787.937 L -1.124 787.937 L -0.640 787.937 L -0.168 787.937 L 0.316 787.937 L 0.834 787.937 L 1.259 787.937 L 1.668 787.937 L 2.080 787.937 L 2.479 787.937 L 2.855 787.937 L 3.264 787.937 L 3.580 787.937 L 3.880 787.937 L 4.206 787.937 L 4.510 787.937 L 4.787 787.937 L 5.090 787.937 L 5.321 787.937 L 5.525 787.937 L 5.729 787.937 L 5.924 787.937 L 6.105 787.937 L 6.310 787.937 L 6.455 787.937 L 6.600 787.937 L 6.745 787.937 L 6.903 787.937 L 7.048 787.937 L 7.216 787.937 L 7.351 787.937 L 7.483 787.937 L 7.615 787.937 L 7.750 787.937 L 7.882 787.937 L 8.040 787.937 L 8.172 787.937 L 8.304 787.937 L 8.439 787.937 L 8.548 787.937 L 8.667 787.937 L 8.802 787.937 L 8.993 787.937 L 9.092 787.937 L 9.273 787.937 L 9.382 787.937 L 9.563 787.937 L 9.768 787.937 L 9.876 787.937 L 10.022 787.937 L 10.130 787.937 L 10.252 787.937 L 10.371 787.937 L 10.493 787.937 L 10.615 787.937 L 10.760 787.937 L 10.869 787.937 L 10.978 787.937 L 11.086 787.937 L 11.195 787.937 L 11.413 787.937 L 11.594 787.937 L 11.775 787.937 L 11.993 787.937 L 12.197 787.937 L 12.402 787.937 L 12.510 787.937 L 12.632 787.937 L 12.827 787.937 L 13.018 787.937 L 13.213 787.937 L 13.371 787.937 L 13.516 787.937 L 13.697 787.937 L 13.842 787.937 L 14.010 787.937 L 14.192 787.937 L 14.350 787.937 L 14.482 787.937 L 14.640 787.937 L 14.759 787.937 L 14.868 787.937 L 15.003 787.937 L 15.158 787.937 L 15.266 787.937 L 15.375 787.937 L 15.520 787.937 L 15.655 787.937 L 15.764 787.937 L 15.873 787.937 L 15.982 787.937 L 16.127 787.937 L 16.259 787.937 L 16.391 787.937 L 16.513 787.937 L 16.644 787.937 L 16.766 787.937 L 16.898 787.937 L 17.020 787.937 L 17.152 787.937 L 17.261 787.937 L 17.383 787.937 L 17.502 787.937 L 17.623 787.937 L 17.732 787.937 L 17.864 787.937 L 17.999 787.937 L 18.108 787.937 L 18.240 787.937 L 18.362 787.937 L 18.481 787.937 L 18.589 787.937 L 18.698 787.937 L 18.807 787.937 L 18.942 787.937 L 19.074 787.937 L 19.196 787.937 L 19.315 787.937 L 19.437 787.937 L 19.559 787.937 L 19.690 787.937 L 19.812 787.937 L 19.931 787.937 L 20.040 787.937 L 20.149 787.937 L 20.248 787.937 "></path>
  </g>
</svg>