<?xml version="1.0" encoding="UTF-8" standalone="yes"?>
<svg xmlns="http://www.w3.org/2000/svg" xmlns:xlink="http://www.w3.org/1999/xlink" width="47.507pt" height="45.343pt" version="1.1" viewBox="-23.651 746.271 47.507 45.343">
  <!--
	Exported with Concepts: Smarter Sketching
	Version: 2463 on iOS 17.1
	https://concepts.app/
	-->
  <title>0A1A025D-9134-4C11-842D-4FEEA5DE3199</title>
  <desc>Drawing exported from Concepts: Smarter Sketching</desc>
  <defs></defs>
  <rect x="-23.651" y="746.271" width="47.507" height="45.343" stroke="none" fill="white"></rect>
  <g id="Pen" opacity="1.000">
    <path id="STROKE_eaf057e6-d98b-47d9-a1be-ceba44a7d2bc" opacity="1.000" fill="none" stroke="#171612" stroke-width="2.919" stroke-opacity="1.000" stroke-linecap="round" stroke-linejoin="round" d="M -21.228 788.350 L -21.153 788.211 L -21.100 788.112 L -21.032 787.984 L -20.964 787.857 L -20.889 787.718 L -20.798 787.549 L -20.703 787.371 L -20.597 787.174 L -20.463 786.924 L -20.330 786.676 L -20.181 786.397 L -20.015 786.089 L -19.832 785.748 L -19.640 785.389 L -19.413 784.966 L -19.208 784.583 L -18.993 784.183 L -18.776 783.777 L -18.558 783.372 L -18.332 782.949 L -18.083 782.485 L -17.872 782.091 L -17.654 781.686 L -17.433 781.274 L -17.216 780.869 L -16.989 780.445 L -16.737 779.975 L -16.532 779.593 L -16.324 779.205 L -16.113 778.811 L -15.895 778.406 L -15.681 778.007 L -15.448 777.571 L -15.259 777.218 L -15.065 776.858 L -14.870 776.494 L -14.671 776.122 L -14.478 775.763 L -14.267 775.369 L -14.090 775.039 L -13.907 774.697 L -13.716 774.343 L -13.530 773.996 L -13.344 773.648 L -13.138 773.265 L -12.961 772.935 L -12.784 772.604 L -12.604 772.269 L -12.424 771.933 L -12.241 771.591 L -12.039 771.214 L -11.871 770.901 L -11.697 770.576 L -11.520 770.246 L -11.343 769.916 L -11.166 769.586 L -10.963 769.208 L -10.802 768.907 L -10.631 768.589 L -10.456 768.263 L -10.277 767.928 L -10.096 767.591 L -9.897 767.221 L -9.729 766.907 L -9.565 766.601 L -9.397 766.287 L -9.239 765.992 L -9.073 765.684 L -8.894 765.350 L -8.748 765.077 L -8.595 764.792 L -8.440 764.503 L -8.282 764.208 L -8.116 763.900 L -7.934 763.559 L -7.781 763.273 L -7.622 762.978 L -7.458 762.672 L -7.290 762.358 L -7.119 762.040 L -6.924 761.675 L -6.765 761.379 L -6.600 761.072 L -6.429 760.753 L -6.252 760.422 L -6.072 760.088 L -5.873 759.716 L -5.714 759.420 L -5.550 759.113 L -5.392 758.818 L -5.236 758.528 L -5.080 758.237 L -4.912 757.924 L -4.782 757.682 L -4.655 757.445 L -4.530 757.212 L -4.403 756.975 L -4.275 756.737 L -4.130 756.465 L -4.008 756.239 L -3.881 756.001 L -3.754 755.763 L -3.623 755.521 L -3.499 755.289 L -3.352 755.016 L -3.241 754.808 L -3.120 754.582 L -2.996 754.350 L -2.871 754.118 L -2.750 753.892 L -2.620 753.650 L -2.517 753.457 L -2.417 753.271 L -2.321 753.092 L -2.228 752.919 L -2.138 752.752 L -2.042 752.572 L -1.970 752.437 L -1.899 752.305 L -1.837 752.189 L -1.777 752.078 L -1.719 751.969 L -1.653 751.846 L -1.606 751.759 L -1.563 751.679 L -1.513 751.585 L -1.467 751.500 L -1.417 751.406 L -1.364 751.308 L -1.317 751.220 L -1.277 751.146 L -1.231 751.059 L -1.184 750.972 L -1.140 750.891 L -1.088 750.793 L -1.045 750.712 L -1.004 750.637 L -0.961 750.556 L -0.920 750.480 L -0.882 750.409 L -0.842 750.334 L -0.786 750.230 L -0.746 750.154 L -0.702 750.073 L -0.665 750.004 L -0.628 749.934 L -0.594 749.871 L -0.553 749.796 L -0.507 749.710 L -0.460 749.621 L -0.420 749.547 L -0.382 749.477 L -0.342 749.402 L -0.302 749.327 L -0.264 749.256 L -0.220 749.175 L -0.186 749.112 L -0.150 749.043 L -0.122 748.991 "></path>
    <path id="STROKE_7bfe257d-2a9b-4dc6-bdc4-b9c5d67c4ac3" opacity="1.000" fill="none" stroke="#171612" stroke-width="2.919" stroke-opacity="1.000" stroke-linecap="round" stroke-linejoin="round" d="M -0.316 748.664 L -0.244 748.798 L -0.182 748.913 L -0.114 749.040 L -0.033 749.192 L 0.051 749.348 L 0.141 749.516 L 0.243 749.707 L 0.359 749.922 L 0.486 750.159 L 0.635 750.437 L 0.788 750.723 L 0.949 751.023 L 1.123 751.348 L 1.309 751.695 L 1.496 752.043 L 1.714 752.449 L 1.900 752.797 L 2.096 753.161 L 2.294 753.532 L 2.500 753.915 L 2.702 754.291 L 2.935 754.726 L 3.134 755.098 L 3.333 755.469 L 3.538 755.851 L 3.749 756.245 L 3.973 756.663 L 4.222 757.127 L 4.430 757.515 L 4.648 757.921 L 4.877 758.349 L 5.108 758.779 L 5.344 759.219 L 5.608 759.712 L 5.832 760.129 L 6.065 760.563 L 6.298 760.997 L 6.540 761.450 L 6.783 761.902 L 7.056 762.412 L 7.289 762.847 L 7.535 763.304 L 7.790 763.780 L 8.051 764.267 L 8.321 764.770 L 8.610 765.310 L 8.849 765.756 L 9.108 766.237 L 9.365 766.718 L 9.627 767.205 L 9.888 767.693 L 10.183 768.243 L 10.425 768.694 L 10.686 769.182 L 10.953 769.679 L 11.224 770.184 L 11.500 770.700 L 11.799 771.257 L 12.057 771.738 L 12.318 772.224 L 12.588 772.728 L 12.859 773.234 L 13.126 773.730 L 13.415 774.271 L 13.651 774.711 L 13.900 775.174 L 14.148 775.637 L 14.394 776.095 L 14.639 776.553 L 14.907 777.051 L 15.124 777.457 L 15.344 777.868 L 15.575 778.298 L 15.808 778.732 L 16.038 779.161 L 16.280 779.613 L 16.485 779.996 L 16.700 780.396 L 16.920 780.807 L 17.135 781.206 L 17.343 781.596 L 17.564 782.007 L 17.737 782.331 L 17.921 782.673 L 18.104 783.014 L 18.288 783.356 L 18.476 783.709 L 18.679 784.087 L 18.844 784.394 L 19.015 784.712 L 19.183 785.026 L 19.341 785.321 L 19.490 785.599 L 19.652 785.900 L 19.773 786.126 L 19.891 786.347 L 20.006 786.562 L 20.121 786.775 L 20.232 786.983 L 20.344 787.192 L 20.431 787.354 L 20.519 787.517 L 20.609 787.685 L 20.696 787.848 L 20.776 787.998 L 20.867 788.166 L 20.935 788.293 L 20.997 788.409 L 21.056 788.519 L 21.112 788.624 L 21.165 788.722 L 21.215 788.816 L 21.252 788.885 L 21.290 788.955 L 21.348 789.064 L 21.395 789.151 L 21.433 789.221 L 21.388 789.138 L 21.351 789.070 L 21.314 789.000 L 21.277 788.930 L 21.245 788.872 L 21.208 788.803 "></path>
  </g>
</svg>