<?xml version="1.0" encoding="UTF-8" standalone="yes"?>
<svg xmlns="http://www.w3.org/2000/svg" xmlns:xlink="http://www.w3.org/1999/xlink" width="46.240pt" height="46.240pt" version="1.1" viewBox="-23.166 744.448 46.240 46.240">
  <!--
	Exported with Concepts: Smarter Sketching
	Version: 2463 on iOS 17.1
	https://concepts.app/
	-->
  <title>0A1A025D-9134-4C11-842D-4FEEA5DE3199</title>
  <desc>Drawing exported from Concepts: Smarter Sketching</desc>
  <defs></defs>
  <rect x="-23.166" y="744.448" width="46.240" height="46.240" stroke="none" fill="white"></rect>
  <g id="Pen" opacity="1.000">
    <path id="STROKE_8164281f-2e3f-4a30-987c-89af2dfbc11a" opacity="1.000" fill="none" stroke="#171612" stroke-width="2.919" stroke-opacity="1.000" stroke-linecap="round" stroke-linejoin="round" d="M -20.765 746.848 L -20.670 746.944 L -20.500 747.113 L -20.312 747.301 L -20.095 747.518 L -19.854 747.760 L -19.611 748.002 L -19.365 748.249 L -19.074 748.539 L -18.748 748.865 L -18.398 749.216 L -18.000 749.614 L -17.632 749.982 L -17.263 750.351 L -16.884 750.729 L -16.497 751.117 L -16.109 751.504 L -15.658 751.955 L -15.277 752.336 L -14.878 752.736 L -14.473 753.140 L -14.050 753.563 L -13.616 753.997 L -13.128 754.486 L -12.723 754.890 L -12.305 755.309 L -11.858 755.755 L -11.406 756.208 L -10.946 756.667 L -10.421 757.192 L -9.974 757.640 L -9.509 758.104 L -9.027 758.586 L -8.543 759.070 L -8.048 759.565 L -7.505 760.109 L -7.050 760.563 L -6.574 761.039 L -6.086 761.528 L -5.590 762.023 L -5.094 762.519 L -4.551 763.063 L -4.086 763.528 L -3.604 764.010 L -3.096 764.517 L -2.576 765.037 L -2.057 765.556 L -1.501 766.112 L -1.038 766.576 L -0.553 767.060 L -0.076 767.537 L 0.414 768.027 L 0.902 768.516 L 1.446 769.059 L 1.892 769.505 L 2.359 769.972 L 2.834 770.447 L 3.305 770.918 L 3.766 771.379 L 4.261 771.874 L 4.683 772.296 L 5.117 772.730 L 5.558 773.172 L 6.000 773.613 L 6.447 774.060 L 6.924 774.537 L 7.310 774.923 L 7.716 775.329 L 8.126 775.739 L 8.531 776.144 L 8.929 776.542 L 9.357 776.971 L 9.719 777.333 L 10.100 777.714 L 10.480 778.093 L 10.861 778.474 L 11.236 778.849 L 11.647 779.260 L 11.962 779.575 L 12.281 779.894 L 12.595 780.208 L 12.897 780.510 L 13.192 780.805 L 13.520 781.133 L 13.766 781.379 L 14.020 781.633 L 14.268 781.881 L 14.521 782.134 L 14.768 782.381 L 15.047 782.660 L 15.275 782.889 L 15.505 783.118 L 15.734 783.347 L 15.970 783.584 L 16.199 783.812 L 16.458 784.072 L 16.671 784.284 L 16.894 784.508 L 17.118 784.731 L 17.341 784.954 L 17.565 785.178 L 17.794 785.407 L 17.969 785.582 L 18.144 785.757 L 18.313 785.927 L 18.476 786.089 L 18.638 786.252 L 18.815 786.428 L 18.941 786.555 L 19.061 786.674 L 19.184 786.797 L 19.303 786.917 L 19.412 787.026 L 19.533 787.146 L 19.618 787.231 L 19.707 787.321 L 19.780 787.394 L 19.860 787.473 L 20.004 787.617 L 20.113 787.727 L 20.215 787.828 L 20.306 787.919 L 20.383 787.997 L 20.451 788.064 L 20.530 788.143 L 20.602 788.215 L 20.674 788.287 L 20.710 788.323 "></path>
    <path id="STROKE_5c26cc61-37e2-4df2-b2af-bf8deda24f66" opacity="1.000" fill="none" stroke="#171612" stroke-width="2.919" stroke-opacity="1.000" stroke-linecap="round" stroke-linejoin="round" d="M 20.452 747.487 L 20.126 747.814 L 20.048 747.891 L 19.957 747.982 L 19.830 748.109 L 19.679 748.260 L 19.504 748.435 L 19.298 748.641 L 19.052 748.887 L 18.810 749.129 L 18.538 749.401 L 18.260 749.679 L 17.977 749.962 L 17.675 750.264 L 17.343 750.596 L 17.059 750.880 L 16.774 751.165 L 16.479 751.460 L 16.185 751.755 L 15.882 752.057 L 15.531 752.408 L 15.230 752.709 L 14.909 753.030 L 14.571 753.368 L 14.215 753.724 L 13.847 754.093 L 13.424 754.515 L 13.056 754.884 L 12.669 755.270 L 12.271 755.668 L 11.873 756.067 L 11.467 756.472 L 11.014 756.925 L 10.646 757.293 L 10.272 757.667 L 9.891 758.048 L 9.517 758.422 L 9.137 758.802 L 8.755 759.184 L 8.338 759.601 L 8.007 759.932 L 7.657 760.282 L 7.288 760.651 L 6.909 761.030 L 6.533 761.406 L 6.105 761.834 L 5.749 762.190 L 5.375 762.564 L 4.987 762.952 L 4.602 763.337 L 4.221 763.718 L 3.791 764.148 L 3.442 764.497 L 3.074 764.866 L 2.711 765.228 L 2.354 765.585 L 1.987 765.952 L 1.581 766.358 L 1.249 766.690 L 0.923 767.016 L 0.586 767.353 L 0.235 767.704 L -0.115 768.054 L -0.508 768.447 L -0.835 768.774 L -1.178 769.117 L -1.547 769.486 L -1.922 769.861 L -2.302 770.241 L -2.718 770.657 L -3.057 770.996 L -3.425 771.364 L -3.795 771.734 L -4.173 772.112 L -4.548 772.487 L -4.966 772.905 L -5.310 773.250 L -5.666 773.605 L -6.022 773.961 L -6.373 774.312 L -6.705 774.644 L -7.091 775.030 L -7.399 775.338 L -7.706 775.646 L -8.021 775.961 L -8.329 776.268 L -8.637 776.576 L -8.987 776.926 L -9.276 777.216 L -9.579 777.518 L -9.881 777.820 L -10.177 778.116 L -10.473 778.412 L -10.806 778.745 L -11.066 779.005 L -11.324 779.263 L -11.584 779.523 L -11.832 779.771 L -12.074 780.013 L -12.340 780.279 L -12.557 780.496 L -12.761 780.701 L -12.961 780.900 L -13.160 781.099 L -13.342 781.281 L -13.540 781.480 L -13.692 781.631 L -13.844 781.783 L -13.989 781.928 L -14.133 782.072 L -14.272 782.211 L -14.423 782.362 L -14.519 782.458 L -14.616 782.556 L -14.712 782.651 L -14.798 782.737 L -14.881 782.820 L -14.973 782.912 L -15.100 783.039 L -15.220 783.159 L -15.334 783.273 L -15.424 783.364 L -15.503 783.442 L -15.594 783.533 L -15.672 783.611 L -15.746 783.685 L -15.823 783.763 L -15.908 783.847 L -15.998 783.937 L -16.066 784.005 L -16.162 784.101 L -16.263 784.203 L -16.379 784.318 L -16.494 784.433 L -16.632 784.572 L -16.766 784.705 L -16.844 784.783 L -16.916 784.855 L -16.995 784.934 L -17.079 785.018 L -17.151 785.090 L -17.224 785.163 L -17.296 785.235 L -17.430 785.369 L -17.502 785.441 L -17.617 785.556 L -17.725 785.664 L -17.834 785.773 L -17.930 785.869 L -18.028 785.967 L -18.135 786.074 L -18.227 786.166 L -18.316 786.255 L -18.430 786.369 L -18.528 786.467 L -18.631 786.570 L -18.733 786.672 L -18.825 786.764 L -18.902 786.841 L -18.999 786.938 L -19.088 787.027 L -19.187 787.126 L -19.301 787.240 L -19.415 787.354 L -19.536 787.475 L -19.663 787.602 L -19.773 787.712 L -19.862 787.801 L -19.946 787.885 L -20.050 787.989 "></path>
  </g>
</svg>