<?xml version="1.0" encoding="UTF-8" standalone="yes"?>
<svg xmlns="http://www.w3.org/2000/svg" xmlns:xlink="http://www.w3.org/1999/xlink" width="46.407pt" height="24.507pt" version="1.1" viewBox="-22.227 754.934 46.407 24.507">
  <!--
	Exported with Concepts: Smarter Sketching
	Version: 2463 on iOS 17.1
	https://concepts.app/
	-->
  <title>0A1A025D-9134-4C11-842D-4FEEA5DE3199</title>
  <desc>Drawing exported from Concepts: Smarter Sketching</desc>
  <defs></defs>
  <rect x="-22.227" y="754.934" width="46.407" height="24.507" stroke="none" fill="white"></rect>
  <g id="Pen" opacity="1.000">
    <path id="STROKE_64bd770e-33f8-45f1-9c91-2f11be571bb0" opacity="1.000" fill="none" stroke="#171612" stroke-width="2.919" stroke-opacity="1.000" stroke-linecap="round" stroke-linejoin="round" d="M -19.149 767.479 L -16.380 767.479 L -15.885 767.479 L -15.378 767.479 L -14.847 767.479 L -14.303 767.479 L -13.746 767.479 L -13.106 767.479 L -12.572 767.479 L -12.018 767.479 L -11.448 767.479 L -10.858 767.479 L -10.278 767.479 L -9.599 767.479 L -9.045 767.479 L -8.465 767.479 L -7.885 767.479 L -7.278 767.479 L -6.675 767.479 L -5.999 767.479 L -5.442 767.479 L -4.898 767.479 L -4.341 767.479 L -3.787 767.479 L -3.230 767.479 L -2.613 767.479 L -2.119 767.479 L -1.611 767.479 L -1.103 767.479 L -0.596 767.479 L -0.088 767.479 L 0.505 767.479 L 0.977 767.479 L 1.461 767.479 L 1.943 767.479 L 2.440 767.479 L 2.922 767.479 L 3.479 767.479 L 3.927 767.479 L 4.399 767.479 L 4.870 767.479 L 5.328 767.479 L 5.763 767.479 L 6.248 767.479 L 6.611 767.479 L 6.973 767.479 L 7.323 767.479 L 7.672 767.479 L 8.025 767.479 L 8.434 767.479 L 8.750 767.479 L 9.063 767.479 L 9.390 767.479 L 9.703 767.479 L 10.006 767.479 L 10.356 767.479 L 10.609 767.479 L 10.876 767.479 L 11.130 767.479 L 11.384 767.479 L 11.638 767.479 L 11.928 767.479 L 12.132 767.479 L 12.363 767.479 L 12.581 767.479 L 12.775 767.479 L 12.966 767.479 L 13.184 767.479 L 13.342 767.479 L 13.487 767.479 L 13.632 767.479 L 13.777 767.479 L 13.922 767.479 L 14.081 767.479 L 14.213 767.479 L 14.358 767.479 L 14.489 767.479 L 14.634 767.479 L 14.770 767.479 L 14.938 767.479 L 15.060 767.479 L 15.192 767.479 L 15.314 767.479 L 15.445 767.479 L 15.577 767.479 L 15.736 767.479 L 15.858 767.479 L 15.976 767.479 L 16.098 767.479 L 16.220 767.479 L 16.339 767.479 L 16.474 767.479 L 16.583 767.479 L 16.764 767.479 L 16.932 767.479 L 17.077 767.479 L 17.186 767.479 L 17.354 767.479 L 17.476 767.479 L 17.595 767.479 L 17.740 767.479 L 17.875 767.479 L 18.007 767.479 L 18.152 767.479 L 18.274 767.479 L 18.393 767.479 L 18.538 767.479 L 18.660 767.479 L 18.768 767.479 L 18.900 767.479 L 19.009 767.479 L 19.131 767.479 L 19.253 767.479 L 19.362 767.479 L 19.480 767.479 L 19.566 767.479 "></path>
    <path id="STROKE_1cfe7a1a-51fc-4ca1-bbcd-e5461afae066" opacity="1.000" fill="none" stroke="#171612" stroke-width="2.919" stroke-opacity="1.000" stroke-linecap="round" stroke-linejoin="round" d="M 20.740 766.936 L 19.919 766.115 L 19.840 766.036 L 19.737 765.933 L 19.651 765.848 L 19.550 765.746 L 19.429 765.625 L 19.301 765.498 L 19.163 765.360 L 18.994 765.191 L 18.824 765.020 L 18.632 764.829 L 18.432 764.628 L 18.204 764.400 L 17.960 764.157 L 17.677 763.873 L 17.430 763.627 L 17.166 763.362 L 16.900 763.097 L 16.627 762.823 L 16.344 762.541 L 16.036 762.232 L 15.782 761.979 L 15.522 761.718 L 15.263 761.459 L 15.015 761.211 L 14.762 760.959 L 14.490 760.686 L 14.272 760.469 L 14.073 760.269 L 13.887 760.083 L 13.704 759.900 L 13.536 759.732 L 13.354 759.550 L 13.222 759.419 L 13.102 759.298 L 12.974 759.171 L 12.853 759.050 L 12.732 758.928 L 12.588 758.784 L 12.473 758.669 L 12.345 758.542 L 12.213 758.409 L 12.086 758.282 L 11.953 758.150 L 11.821 758.017 L 11.718 757.914 L 11.622 757.818 L 11.531 757.727 L 11.447 757.643 L 11.374 757.571 L 11.296 757.492 L 11.218 757.414 L 11.139 757.336 L 11.096 757.292 L 11.126 757.323 "></path>
    <path id="STROKE_afb2d39d-2d98-472e-886f-cfcb9f2e858a" opacity="1.000" fill="none" stroke="#171612" stroke-width="2.919" stroke-opacity="1.000" stroke-linecap="round" stroke-linejoin="round" d="M 21.778 767.733 L 21.651 767.861 L 21.555 767.956 L 21.477 768.035 L 21.391 768.120 L 21.307 768.204 L 21.223 768.289 L 21.133 768.379 L 21.017 768.495 L 20.921 768.591 L 20.818 768.694 L 20.709 768.802 L 20.595 768.917 L 20.474 769.037 L 20.328 769.183 L 20.190 769.322 L 20.046 769.466 L 19.894 769.618 L 19.720 769.792 L 19.532 769.980 L 19.309 770.203 L 19.103 770.409 L 18.880 770.631 L 18.631 770.880 L 18.367 771.145 L 18.090 771.422 L 17.756 771.755 L 17.472 772.040 L 17.183 772.329 L 16.888 772.624 L 16.592 772.920 L 16.295 773.217 L 15.964 773.548 L 15.698 773.814 L 15.438 774.074 L 15.185 774.327 L 14.948 774.563 L 14.719 774.793 L 14.472 775.040 L 14.285 775.227 L 14.104 775.407 L 13.916 775.595 L 13.741 775.771 L 13.566 775.946 L 13.373 776.139 L 13.222 776.289 L 13.083 776.428 L 12.943 776.568 L 12.817 776.695 L 12.702 776.810 L 12.587 776.924 L 12.473 777.039 "></path>
    <path id="STROKE_832ba2ba-5cc1-4e57-abd3-8aee3af7477a" opacity="1.000" fill="none" stroke="#171612" stroke-width="2.919" stroke-opacity="1.000" stroke-linecap="round" stroke-linejoin="round" d="M -19.825 766.563 L -19.734 766.472 L -19.589 766.327 L -19.427 766.165 L -19.246 765.984 L -19.028 765.766 L -18.811 765.549 L -18.569 765.307 L -18.316 765.054 L -18.044 764.782 L -17.747 764.485 L -17.404 764.142 L -17.091 763.829 L -16.764 763.502 L -16.432 763.170 L -16.093 762.831 L -15.762 762.500 L -15.380 762.118 L -15.085 761.823 L -14.782 761.521 L -14.500 761.238 L -14.221 760.959 L -13.950 760.688 L -13.643 760.381 L -13.400 760.138 L -13.165 759.903 L -12.942 759.680 L -12.723 759.461 L -12.531 759.269 L -12.319 759.057 L -12.180 758.918 L -12.047 758.785 L -11.933 758.671 L -11.818 758.556 L -11.722 758.460 L -11.613 758.351 L -11.541 758.279 L -11.462 758.200 L -11.383 758.121 L -11.305 758.043 L -11.220 757.958 L -11.130 757.868 L -11.004 757.742 L -10.894 757.632 L -10.822 757.560 L -10.913 757.651 "></path>
    <path id="STROKE_1e2aa1da-6dea-4f05-ab86-8eea7ae31a0a" opacity="1.000" fill="none" stroke="#171612" stroke-width="2.919" stroke-opacity="1.000" stroke-linecap="round" stroke-linejoin="round" d="M -19.281 767.999 L -18.925 768.355 L -18.756 768.524 L -18.556 768.724 L -18.321 768.959 L -18.055 769.225 L -17.760 769.520 L -17.415 769.865 L -17.078 770.202 L -16.715 770.565 L -16.335 770.945 L -15.936 771.344 L -15.550 771.730 L -15.116 772.164 L -14.765 772.515 L -14.415 772.865 L -14.058 773.222 L -13.708 773.572 L -13.365 773.915 L -12.977 774.303 L -12.682 774.598 L -12.391 774.889 L -12.121 775.159 L -11.866 775.414 L -11.630 775.650 L -11.395 775.885 L -11.244 776.036 L -11.123 776.157 L -11.008 776.272 L -10.929 776.351 L -10.803 776.477 "></path>
  </g>
</svg>