<?xml version="1.0" encoding="UTF-8" standalone="yes"?>
<svg xmlns="http://www.w3.org/2000/svg" xmlns:xlink="http://www.w3.org/1999/xlink" width="18.603pt" height="44.974pt" version="1.1" viewBox="-9.025 744.384 18.603 44.974">
  <!--
	Exported with Concepts: Smarter Sketching
	Version: 2463 on iOS 17.1
	https://concepts.app/
	-->
  <title>0A1A025D-9134-4C11-842D-4FEEA5DE3199</title>
  <desc>Drawing exported from Concepts: Smarter Sketching</desc>
  <defs></defs>
  <rect x="-9.025" y="744.384" width="18.603" height="44.974" stroke="none" fill="white"></rect>
  <g id="Pen" opacity="1.000">
    <path id="STROKE_6cf4843d-04c0-4f3d-9b6e-05a4e01ac263" opacity="1.000" fill="none" stroke="#171612" stroke-width="2.919" stroke-opacity="1.000" stroke-linecap="round" stroke-linejoin="round" d="M -0.352 746.905 L -0.679 747.232 L -0.805 747.358 L -0.878 747.431 L -0.968 747.521 L -1.078 747.631 L -1.204 747.757 L -1.372 747.925 L -1.553 748.107 L -1.766 748.319 L -1.994 748.548 L -2.248 748.802 L -2.527 749.080 L -2.841 749.394 L -3.117 749.670 L -3.389 749.942 L -3.668 750.222 L -3.945 750.499 L -4.212 750.765 L -4.501 751.054 L -4.719 751.272 L -4.923 751.476 L -5.123 751.676 L -5.304 751.858 L -5.479 752.032 L -5.673 752.226 L -5.811 752.364 L -5.944 752.497 L -6.071 752.625 L -6.173 752.726 L -6.282 752.835 L -6.385 752.938 L -6.457 753.010 L -6.560 753.114 L -6.637 753.190 L -6.553 753.106 L -6.469 753.022 "></path>
    <path id="STROKE_c4bf9ef3-fe8f-4252-a7aa-34440e944121" opacity="1.000" fill="none" stroke="#171612" stroke-width="2.919" stroke-opacity="1.000" stroke-linecap="round" stroke-linejoin="round" d="M 0.202 746.772 L 0.486 747.056 L 0.559 747.129 L 0.656 747.226 L 0.775 747.346 L 0.915 747.485 L 1.072 747.642 L 1.271 747.841 L 1.496 748.066 L 1.755 748.325 L 2.056 748.626 L 2.347 748.917 L 2.655 749.225 L 2.974 749.544 L 3.289 749.859 L 3.596 750.166 L 3.928 750.498 L 4.193 750.763 L 4.454 751.024 L 4.689 751.259 L 4.901 751.471 L 5.105 751.675 L 5.311 751.881 L 5.450 752.020 L 5.576 752.147 L 5.691 752.261 L 5.788 752.358 L 5.872 752.442 L 5.963 752.533 L 6.048 752.618 "></path>
    <path id="STROKE_bcbb8263-ccdf-4c3d-885c-e4786666a5e3" opacity="1.000" fill="none" stroke="#171612" stroke-width="2.919" stroke-opacity="1.000" stroke-linecap="round" stroke-linejoin="round" d="M 0.179 747.881 L 0.179 748.257 L 0.179 748.412 L 0.179 748.607 L 0.179 748.836 L 0.179 749.113 L 0.179 749.427 L 0.179 749.812 L 0.179 750.199 L 0.179 750.621 L 0.179 751.093 L 0.179 751.610 L 0.179 752.179 L 0.179 752.829 L 0.179 753.420 L 0.179 754.048 L 0.179 754.701 L 0.179 755.363 L 0.179 756.027 L 0.179 756.776 L 0.179 757.367 L 0.179 757.947 L 0.179 758.513 L 0.179 759.069 L 0.179 759.624 L 0.179 760.252 L 0.179 760.783 L 0.179 761.326 L 0.179 761.892 L 0.179 762.460 L 0.179 763.014 L 0.179 763.630 L 0.179 764.114 L 0.179 764.583 L 0.179 765.053 L 0.179 765.514 L 0.179 765.972 L 0.179 766.478 L 0.179 766.900 L 0.179 767.323 L 0.179 767.756 L 0.179 768.192 L 0.179 768.613 L 0.179 769.096 L 0.179 769.470 L 0.179 769.846 L 0.179 770.219 L 0.179 770.592 L 0.179 770.968 L 0.179 771.390 L 0.179 771.729 L 0.179 772.091 L 0.179 772.453 L 0.179 772.826 L 0.179 773.188 L 0.179 773.598 L 0.179 773.923 L 0.179 774.237 L 0.179 774.551 L 0.179 774.865 L 0.179 775.167 L 0.179 775.504 L 0.179 775.784 L 0.179 776.061 L 0.179 776.361 L 0.179 776.663 L 0.179 776.977 L 0.179 777.339 L 0.179 777.653 L 0.179 777.967 L 0.179 778.281 L 0.179 778.583 L 0.179 778.872 L 0.179 779.197 L 0.179 779.440 L 0.179 779.669 L 0.179 779.898 L 0.179 780.115 L 0.179 780.331 L 0.179 780.585 L 0.179 780.778 L 0.179 780.972 L 0.179 781.165 L 0.179 781.346 L 0.179 781.538 L 0.179 781.756 L 0.179 781.925 L 0.179 782.106 L 0.179 782.287 L 0.179 782.480 L 0.179 782.672 L 0.179 782.901 L 0.179 783.096 L 0.179 783.288 L 0.179 783.495 L 0.179 783.687 L 0.179 783.891 L 0.179 784.122 L 0.179 784.289 L 0.179 784.459 L 0.179 784.617 L 0.179 784.761 L 0.179 784.894 L 0.179 785.050 L 0.179 785.242 L 0.179 785.423 L 0.179 785.604 L 0.179 785.762 L 0.179 785.943 L 0.179 786.051 L 0.179 786.172 L 0.179 786.353 L 0.179 786.512 L 0.179 786.619 L 0.179 786.523 "></path>
    <path id="STROKE_f3d3c27d-bc0a-4638-8a12-4ae2cdee9b20" opacity="1.000" fill="none" stroke="#171612" stroke-width="2.919" stroke-opacity="1.000" stroke-linecap="round" stroke-linejoin="round" d="M 0.083 786.970 L -0.528 786.358 L -0.637 786.249 L -0.763 786.124 L -0.902 785.985 L -1.054 785.832 L -1.233 785.653 L -1.446 785.440 L -1.644 785.242 L -1.868 785.018 L -2.111 784.775 L -2.375 784.511 L -2.659 784.227 L -3.003 783.883 L -3.330 783.556 L -3.668 783.218 L -4.019 782.867 L -4.369 782.517 L -4.688 782.198 L -5.015 781.871 L -5.214 781.672 L -5.365 781.522 L -5.461 781.425 L -5.528 781.358 L -5.474 781.412 L -5.377 781.509 "></path>
    <path id="STROKE_8c1fb42b-deb1-45e1-9433-5cbb60929541" opacity="1.000" fill="none" stroke="#171612" stroke-width="2.919" stroke-opacity="1.000" stroke-linecap="round" stroke-linejoin="round" d="M 0.505 786.571 L 0.983 786.094 L 1.212 785.864 L 1.478 785.599 L 1.767 785.310 L 2.095 784.982 L 2.438 784.639 L 2.836 784.240 L 3.204 783.872 L 3.597 783.479 L 3.984 783.092 L 4.370 782.706 L 4.744 782.332 L 5.150 781.927 L 5.445 781.631 L 5.716 781.360 L 5.971 781.105 L 6.199 780.877 L 6.398 780.678 L 6.610 780.466 L 6.742 780.334 L 6.864 780.212 L 6.972 780.105 L 7.063 780.013 L 7.189 779.887 "></path>
  </g>
</svg>